<svg xmlns="http://www.w3.org/2000/svg" width="23.581" height="18.283" viewBox="0 0 23.581 18.283">
  <path id="Vector" d="M9.845,10.027l-3.007-2.4h3.684L11.791,4l1.268,3.628h3.684l-3.036,2.4,1.209,3.713L11.791,11.4,8.637,13.741Zm-7.87,8.256A1.952,1.952,0,0,1,.56,17.741,1.829,1.829,0,0,1,0,16.369V11.941a2.81,2.81,0,0,0,1.769-.928,2.7,2.7,0,0,0,.707-1.871A2.7,2.7,0,0,0,1.769,7.27,2.81,2.81,0,0,0,0,6.342V1.914A1.829,1.829,0,0,1,.56.542,1.952,1.952,0,0,1,1.975,0H21.606a1.952,1.952,0,0,1,1.415.542,1.829,1.829,0,0,1,.56,1.371V6.342a2.81,2.81,0,0,0-1.769.928,2.7,2.7,0,0,0-.707,1.871,2.7,2.7,0,0,0,.707,1.871,2.81,2.81,0,0,0,1.769.928v4.428a1.829,1.829,0,0,1-.56,1.371,1.952,1.952,0,0,1-1.415.542Zm0-1.914H21.606V13.341a5.969,5.969,0,0,1-1.783-1.8,4.5,4.5,0,0,1,0-4.8,5.969,5.969,0,0,1,1.783-1.8V1.914H1.975V4.942a5.705,5.705,0,0,1,1.8,1.8,4.587,4.587,0,0,1,0,4.8,5.705,5.705,0,0,1-1.8,1.8Z" fill="#565656"/>
</svg>
