<svg xmlns="http://www.w3.org/2000/svg" width="109.506" height="34.804" viewBox="0 0 109.506 34.804">
  <g id="Group_240257" data-name="Group 240257" transform="translate(-722 -3828.872)">
    <path id="Vector_42" d="M52.529,6.22C46.165,11.166,36.942,13.806,29,13.806A41.359,41.359,0,0,1,.257,2.238C-.339,1.67.195.9.91,1.338A55.559,55.559,0,0,0,29.668,9.382,54.636,54.636,0,0,0,51.6,4.651.911.911,0,1,1,52.529,6.22Z" transform="translate(737.406 3849.87)" fill="#f90" fill-rule="evenodd"/>
    <path id="Vector_42-2" data-name="Vector_42" d="M55.174,3.027c-.81-1.1-5.377-.518-7.427-.261-.624.08-.72-.493-.157-.9,3.637-2.7,9.6-1.92,10.3-1.016s-.181,7.219-3.6,10.231c-.524.463-1.025.216-.791-.4.767-2.021,2.488-6.551,1.673-7.652Z" transform="translate(737.406 3849.87)" fill="#f90" fill-rule="evenodd"/>
    <path id="Vector_43" d="M63.3,3.8V1.176a.631.631,0,0,1,.629-.664h11.14a.637.637,0,0,1,.644.664V3.424a3.774,3.774,0,0,1-.839,1.649L69.1,13.765A11.769,11.769,0,0,1,75.452,15.2a1.207,1.207,0,0,1,.591,1.021v2.8c0,.382-.4.83-.82.6a12.243,12.243,0,0,0-11.769.02c-.386.221-.791-.221-.791-.6V16.379a3.315,3.315,0,0,1,.41-1.8L69.761,4.459h-5.82A.633.633,0,0,1,63.3,3.8Z" transform="translate(722 3828.872)" fill-rule="evenodd"/>
    <path id="Vector_43-2" data-name="Vector_43" d="M22.661,20.175H19.272a.657.657,0,0,1-.605-.608V1.222A.653.653,0,0,1,19.32.563h3.16a.654.654,0,0,1,.615.613v2.4h.062a4.5,4.5,0,0,1,4.462-3.4c2.121,0,3.446,1.081,4.4,3.4A4.816,4.816,0,0,1,36.7.176a4.729,4.729,0,0,1,3.923,2.006c1.073,1.543.853,3.786.853,5.751l0,11.578a.657.657,0,0,1-.653.664H37.433a.664.664,0,0,1-.61-.664V9.788a24.21,24.21,0,0,0-.1-3.439,1.781,1.781,0,0,0-1.992-1.579,2.259,2.259,0,0,0-2.026,1.5,11.689,11.689,0,0,0-.315,3.514v9.723a.657.657,0,0,1-.653.664H28.357a.661.661,0,0,1-.61-.664l0-9.723c0-2.046.319-5.057-2.088-5.057-2.436,0-2.34,2.936-2.34,5.057v9.723a.657.657,0,0,1-.653.664Z" transform="translate(722 3828.872)" fill-rule="evenodd"/>
    <path id="Vector_43-3" data-name="Vector_43" d="M85.3.176c5.029,0,7.751,4.555,7.751,10.346,0,5.6-3.008,10.034-7.751,10.034-4.938,0-7.627-4.555-7.627-10.231C77.674,4.615,80.4.176,85.3.176Zm.029,3.745c-2.5,0-2.655,3.589-2.655,5.827s-.033,7.028,2.626,7.028c2.626,0,2.75-3.861,2.75-6.214A17.845,17.845,0,0,0,87.545,5.7a2.139,2.139,0,0,0-2.217-1.775Z" transform="translate(722 3828.872)" fill-rule="evenodd"/>
    <path id="Vector_43-4" data-name="Vector_43" d="M99.572,20.175H96.2a.664.664,0,0,1-.61-.664l0-18.35a.654.654,0,0,1,.653-.6h3.141a.658.658,0,0,1,.605.513V3.881h.062c.949-2.509,2.278-3.705,4.619-3.705a4.382,4.382,0,0,1,3.956,2.162c.887,1.468.887,3.936.887,5.711V19.6a.662.662,0,0,1-.653.578h-3.4a.656.656,0,0,1-.6-.578V9.632c0-2.006.219-4.942-2.121-4.942a2.224,2.224,0,0,0-1.959,1.468,8.519,8.519,0,0,0-.539,3.474v9.879a.668.668,0,0,1-.663.664Z" transform="translate(722 3828.872)" fill-rule="evenodd"/>
    <path id="Vector_43-5" data-name="Vector_43" d="M54.417,10.638c-2.455,0-5.043.553-5.043,3.6,0,1.543.763,2.589,2.064,2.589A2.749,2.749,0,0,0,53.783,15.2a7.327,7.327,0,0,0,.634-3.791Zm3.418,9.486a.679.679,0,0,1-.8.085,8.608,8.608,0,0,1-1.945-2.383c-1.859,2-3.179,2.6-5.587,2.6-2.855,0-5.072-1.855-5.072-5.57a6.079,6.079,0,0,1,3.613-5.842c1.84-.855,4.409-1.005,6.373-1.242V7.31A4.778,4.778,0,0,0,54,4.721a2.212,2.212,0,0,0-1.9-.93,2.6,2.6,0,0,0-2.722,2.147.731.731,0,0,1-.591.654L45.5,6.219A.626.626,0,0,1,45,5.47C45.751,1.267,49.355,0,52.577,0a7.426,7.426,0,0,1,5.105,1.78C59.331,3.4,59.174,5.57,59.174,7.928V13.5a5.026,5.026,0,0,0,1.277,3.313.7.7,0,0,1-.014.95c-.691.608-1.921,1.739-2.6,2.373Z" transform="translate(722 3828.872)" fill-rule="evenodd"/>
    <path id="Vector_43-6" data-name="Vector_43" d="M9.986,10.638c-2.45,0-5.038.553-5.038,3.6,0,1.543.758,2.589,2.059,2.589A2.743,2.743,0,0,0,9.352,15.2a7.327,7.327,0,0,0,.634-3.791ZM13.4,20.124a.679.679,0,0,1-.8.085,8.7,8.7,0,0,1-1.945-2.383c-1.859,2-3.175,2.6-5.587,2.6C2.221,20.426,0,18.571,0,14.856A6.086,6.086,0,0,1,3.613,9.014c1.84-.855,4.409-1.005,6.373-1.242V7.31a4.821,4.821,0,0,0-.41-2.589,2.223,2.223,0,0,0-1.9-.93A2.607,2.607,0,0,0,4.948,5.937a.732.732,0,0,1-.586.654L1.073,6.219A.629.629,0,0,1,.567,5.47C1.325,1.267,4.924,0,8.146,0a7.426,7.426,0,0,1,5.105,1.78C14.9,3.4,14.743,5.57,14.743,7.928V13.5a5.026,5.026,0,0,0,1.277,3.313.7.7,0,0,1-.01.95c-.691.608-1.921,1.739-2.6,2.373Z" transform="translate(722 3828.872)" fill-rule="evenodd"/>
  </g>
</svg>
