<svg xmlns="http://www.w3.org/2000/svg" width="126.284" height="39" viewBox="0 0 126.284 39">
  <g id="Group_240294" data-name="Group 240294" transform="translate(-1038 -4131)">
    <g id="Group_240267" data-name="Group 240267">
      <path id="Vector" d="M116.227,0c.379,0,.765,0,1.144,0,.322,0,.652.008.973.012a14.877,14.877,0,0,1,2.111.172A7.568,7.568,0,0,1,122.469.8a6.586,6.586,0,0,1,2.953,2.73,6.114,6.114,0,0,1,.654,1.856,12.2,12.2,0,0,1,.2,1.952c0,.3,0,.6,0,.9.008.353.008.707.008,1.065V29.7c0,.36,0,.712-.008,1.066,0,.3,0,.6,0,.9a12.2,12.2,0,0,1-.2,1.952,6.1,6.1,0,0,1-.654,1.857,6.285,6.285,0,0,1-1.247,1.574,6.638,6.638,0,0,1-1.707,1.149,7.612,7.612,0,0,1-2.013.615,15.149,15.149,0,0,1-2.111.172c-.321.007-.651.01-.973.01-.379,0-.765,0-1.144,0H10.062c-.387,0-.769,0-1.155,0-.323,0-.644,0-.97-.01a15.341,15.341,0,0,1-2.115-.172A7.486,7.486,0,0,1,3.816,38.2a6.627,6.627,0,0,1-1.708-1.149,6.1,6.1,0,0,1-1.9-3.431,11.731,11.731,0,0,1-.189-1.952c-.01-.3-.011-.6-.016-.9V8.233c.005-.3.006-.6.016-.9A11.732,11.732,0,0,1,.205,5.384a6.15,6.15,0,0,1,1.9-3.436A6.8,6.8,0,0,1,3.816.8,7.444,7.444,0,0,1,5.822.187,15.065,15.065,0,0,1,7.937.014c.326,0,.647-.01.97-.012.386,0,.768,0,1.155,0H116.227Z" transform="translate(1038 4131)" fill="#a6a6a6"/>
      <g id="Group_240266" data-name="Group 240266">
        <path id="Vector-2" data-name="Vector" d="M7.995,37.225c-.322,0-.636,0-.955-.01a14.521,14.521,0,0,1-1.974-.159,6.587,6.587,0,0,1-1.749-.533,5.712,5.712,0,0,1-1.475-.989A5.264,5.264,0,0,1,.191,32.562a11.162,11.162,0,0,1-.176-1.825C.009,30.532,0,29.848,0,29.848V7.367S.009,6.694.016,6.5A11.122,11.122,0,0,1,.19,4.674,5.306,5.306,0,0,1,1.836,1.7,5.88,5.88,0,0,1,3.317.7,6.519,6.519,0,0,1,5.062.172a14.391,14.391,0,0,1,1.98-.16L8,0H116.5l.964.012a14.153,14.153,0,0,1,1.962.158A6.647,6.647,0,0,1,121.2.7a5.694,5.694,0,0,1,2.55,2.355,5.292,5.292,0,0,1,.566,1.6,11.692,11.692,0,0,1,.183,1.837c0,.276,0,.572,0,.866.008.365.008.712.008,1.063V28.8c0,.354,0,.7-.008,1.046,0,.317,0,.606,0,.9a11.49,11.49,0,0,1-.181,1.8,5.289,5.289,0,0,1-.57,1.625,5.38,5.38,0,0,1-1.073,1.349,5.723,5.723,0,0,1-1.477,1,6.56,6.56,0,0,1-1.762.535,14.346,14.346,0,0,1-1.973.159c-.309.007-.633.01-.947.01l-1.145,0Z" transform="translate(1038.889 4131.886)"/>
        <path id="Vector-3" data-name="Vector" d="M14.835,8.742a4.577,4.577,0,0,0,2.018,1.716,10.8,10.8,0,0,1-1.444,3.015c-.851,1.3-1.743,2.579-3.159,2.6-1.376.033-1.838-.83-3.416-.83s-2.086.806-3.4.862c-1.348.051-2.379-1.392-3.261-2.684C.406,10.785-.966,5.987.874,2.723A5.128,5.128,0,0,1,2.659.818,4.967,4.967,0,0,1,5.129.063C6.478.035,7.732,1,8.561,1c.814,0,2.363-1.152,3.96-.98a4.729,4.729,0,0,1,2.141.592,4.86,4.86,0,0,1,1.656,1.512A4.774,4.774,0,0,0,14.689,3.85a4.917,4.917,0,0,0-.613,2.32,4.746,4.746,0,0,0,.759,2.573Z" transform="translate(1047.483 4144.624)" fill="#fff"/>
        <path id="Vector-4" data-name="Vector" d="M1.716,4.512A3.819,3.819,0,0,1,.009,4.9a4.626,4.626,0,0,1,.226-1.75A4.548,4.548,0,0,1,1.1,1.618,4.68,4.68,0,0,1,4.149,0a4.83,4.83,0,0,1-1.06,3.4A3.916,3.916,0,0,1,1.716,4.512Z" transform="translate(1055.873 4139.502)" fill="#fff"/>
        <path id="Vector-5" data-name="Vector" d="M7.491,8.835h-4.5L1.907,12.108H0L4.265,0H6.246l4.265,12.108H8.572ZM3.455,7.325H7.024L5.265,2.014H5.215Z" transform="translate(1070.749 4148.626)" fill="#fff"/>
        <path id="Vector-6" data-name="Vector" d="M8.113,4.508c0,2.743-1.433,4.506-3.594,4.506a2.861,2.861,0,0,1-1.571-.373A2.957,2.957,0,0,1,1.809,7.469H1.768v4.372H0V.094H1.711V1.562h.032A3.094,3.094,0,0,1,2.9.394,3,3,0,0,1,4.486,0C6.672,0,8.113,1.773,8.113,4.508Zm-1.817,0c0-1.787-.9-2.962-2.276-2.962-1.351,0-2.259,1.2-2.259,2.962,0,1.779.909,2.97,2.259,2.97C5.395,7.478,6.3,6.312,6.3,4.508Z" transform="translate(1082.357 4151.813)" fill="#fff"/>
        <path id="Vector-7" data-name="Vector" d="M8.113,4.508c0,2.743-1.433,4.506-3.594,4.506a2.862,2.862,0,0,1-1.571-.373A2.957,2.957,0,0,1,1.809,7.469H1.768v4.372H0V.094H1.711V1.562h.033A3.093,3.093,0,0,1,2.9.394,3,3,0,0,1,4.486,0C6.672,0,8.113,1.773,8.113,4.508Zm-1.817,0c0-1.787-.9-2.962-2.276-2.962-1.351,0-2.259,1.2-2.259,2.962,0,1.779.909,2.97,2.259,2.97C5.395,7.478,6.3,6.312,6.3,4.508Z" transform="translate(1091.839 4151.813)" fill="#fff"/>
        <path id="Vector-8" data-name="Vector" d="M1.81,8.936c.131,1.2,1.269,1.989,2.824,1.989,1.49,0,2.562-.788,2.562-1.871,0-.94-.647-1.5-2.178-1.888L3.487,6.788C1.318,6.251.311,5.211.311,3.524.311,1.435,2.087,0,4.61,0c2.5,0,4.207,1.435,4.265,3.524H7.09A2.222,2.222,0,0,0,4.584,1.586c-1.424,0-2.4.738-2.4,1.812,0,.856.622,1.36,2.145,1.745l1.3.328c2.424.587,3.431,1.585,3.431,3.356,0,2.265-1.76,3.684-4.56,3.684-2.62,0-4.388-1.385-4.5-3.575Z" transform="translate(1104.403 4148.424)" fill="#fff"/>
        <path id="Vector-9" data-name="Vector" d="M3.028,0V2.089H4.666V3.524H3.028V8.39c0,.756.328,1.108,1.048,1.108a5.387,5.387,0,0,0,.582-.042v1.426a4.741,4.741,0,0,1-.982.084c-1.744,0-2.424-.671-2.424-2.383V3.524H0V2.089H1.252V0Z" transform="translate(1114.256 4149.817)" fill="#fff"/>
        <path id="Vector-10" data-name="Vector" d="M0,4.523C0,1.745,1.6,0,4.085,0S8.171,1.745,8.171,4.523,6.59,9.045,4.085,9.045,0,7.308,0,4.523Zm6.369,0c0-1.905-.852-3.03-2.284-3.03S1.8,2.626,1.8,4.523c0,1.913.851,3.029,2.284,3.029S6.369,6.436,6.369,4.523Z" transform="translate(1119.87 4151.798)" fill="#fff"/>
        <path id="Vector-11" data-name="Vector" d="M0,.094H1.686V1.6h.041A2.109,2.109,0,0,1,2.487.422,2.019,2.019,0,0,1,3.8,0,2.656,2.656,0,0,1,4.4.069V1.764a2.416,2.416,0,0,0-.794-.109,1.742,1.742,0,0,0-.751.136,1.784,1.784,0,0,0-.626.445,1.829,1.829,0,0,0-.388.673,1.869,1.869,0,0,0-.077.777V8.921H0Z" transform="translate(1129.5 4151.813)" fill="#fff"/>
        <path id="Vector-12" data-name="Vector" d="M7.769,6.343a3.469,3.469,0,0,1-3.708,2.7C1.555,9.045,0,7.325,0,4.565S1.563,0,3.986,0C6.368,0,7.867,1.678,7.867,4.354v.621H1.784v.109a2.359,2.359,0,0,0,.117.96,2.305,2.305,0,0,0,.492.826,2.239,2.239,0,0,0,.779.546,2.2,2.2,0,0,0,.929.169A1.912,1.912,0,0,0,5.3,7.3a1.982,1.982,0,0,0,.793-.959ZM1.793,3.709H6.1a2.168,2.168,0,0,0-.126-.859,2.133,2.133,0,0,0-.452-.735,2.076,2.076,0,0,0-.7-.488,2.028,2.028,0,0,0-.833-.159,2.131,2.131,0,0,0-.84.167,2.17,2.17,0,0,0-.712.485,2.233,2.233,0,0,0-.476.729,2.276,2.276,0,0,0-.165.86Z" transform="translate(1134.283 4151.798)" fill="#fff"/>
        <path id="Vector-13" data-name="Vector" d="M2.05.007A2.456,2.456,0,0,1,3.139.175,2.508,2.508,0,0,1,4.053.8a2.587,2.587,0,0,1,.563.97,2.635,2.635,0,0,1,.1,1.124c0,1.859-.98,2.927-2.671,2.927H0V.007ZM.882,5h1.07a1.746,1.746,0,0,0,.776-.13,1.784,1.784,0,0,0,.646-.459,1.84,1.84,0,0,0,.391-.7,1.872,1.872,0,0,0,.06-.8,1.878,1.878,0,0,0-.066-.8,1.845,1.845,0,0,0-.392-.694A1.79,1.79,0,0,0,2.723.96,1.75,1.75,0,0,0,1.952.829H.882Z" transform="translate(1071.933 4139.506)" fill="#fff"/>
        <path id="Vector-14" data-name="Vector" d="M.01,2.278A2.128,2.128,0,0,1,.1,1.423,2.091,2.091,0,0,1,.528.681a2.032,2.032,0,0,1,.681-.5,1.985,1.985,0,0,1,1.642,0,2.032,2.032,0,0,1,.681.5,2.091,2.091,0,0,1,.424.742,2.128,2.128,0,0,1,.095.855,2.13,2.13,0,0,1-.093.856,2.094,2.094,0,0,1-.424.744,2.03,2.03,0,0,1-.681.5,1.984,1.984,0,0,1-1.644,0,2.03,2.03,0,0,1-.681-.5A2.091,2.091,0,0,1,.1,3.134,2.129,2.129,0,0,1,.01,2.278Zm3.171,0C3.18,1.326,2.763.77,2.031.77S.883,1.326.883,2.278,1.3,3.789,2.031,3.789,3.18,3.233,3.18,2.278Z" transform="translate(1077.641 4140.855)" fill="#fff"/>
        <path id="Vector-15" data-name="Vector" d="M4.76,4.39H3.883L3,1.157H2.931L2.049,4.39H1.181L0,0H.857l.767,3.35h.063L2.569,0H3.38L4.26,3.35h.067L5.091,0h.845Z" transform="translate(1082.3 4140.94)" fill="#fff"/>
        <path id="Vector-16" data-name="Vector" d="M0,.089H.814v.7H.877a1.3,1.3,0,0,1,.517-.6A1.257,1.257,0,0,1,2.155,0,1.363,1.363,0,0,1,2.768.1,1.393,1.393,0,0,1,3.28.455,1.438,1.438,0,0,1,3.59,1a1.462,1.462,0,0,1,.048.633V4.479H2.792V1.855c0-.706-.3-1.056-.924-1.056a.96.96,0,0,0-.414.072.981.981,0,0,0-.347.243,1.012,1.012,0,0,0-.216.369,1.032,1.032,0,0,0-.046.428V4.479H0Z" transform="translate(1089.229 4140.851)" fill="#fff"/>
        <path id="Vector-17" data-name="Vector" d="M0,0H.845V6.1H0Z" transform="translate(1094.215 4139.226)" fill="#fff"/>
        <path id="Vector-18" data-name="Vector" d="M.01,2.278A2.127,2.127,0,0,1,.1,1.423,2.093,2.093,0,0,1,.528.681a2.033,2.033,0,0,1,.681-.5,1.985,1.985,0,0,1,1.642,0,2.033,2.033,0,0,1,.681.5,2.093,2.093,0,0,1,.424.742,2.128,2.128,0,0,1,.095.855,2.13,2.13,0,0,1-.093.856,2.092,2.092,0,0,1-.424.744,2.032,2.032,0,0,1-.681.5,1.984,1.984,0,0,1-1.644,0,2.031,2.031,0,0,1-.681-.5A2.092,2.092,0,0,1,.1,3.134,2.13,2.13,0,0,1,.01,2.278Zm3.171,0C3.18,1.326,2.763.77,2.031.77S.883,1.326.883,2.278,1.3,3.79,2.031,3.79,3.18,3.234,3.18,2.278Z" transform="translate(1096.227 4140.855)" fill="#fff"/>
        <path id="Vector-19" data-name="Vector" d="M0,3.233c0-.79.574-1.246,1.593-1.311l1.16-.069V1.475c0-.464-.3-.726-.877-.726-.472,0-.8.178-.893.488H.165C.252.484.944,0,1.916,0,2.989,0,3.6.548,3.6,1.475v3H2.781V3.858H2.714a1.455,1.455,0,0,1-.552.523,1.412,1.412,0,0,1-.734.166A1.263,1.263,0,0,1,.894,4.49,1.287,1.287,0,0,1,.43,4.215a1.324,1.324,0,0,1-.316-.444A1.354,1.354,0,0,1,0,3.233Zm2.754-.375V2.491L1.707,2.56c-.59.041-.857.246-.857.633s.334.625.794.625a.986.986,0,0,0,.4-.041,1,1,0,0,0,.353-.2,1.031,1.031,0,0,0,.25-.323,1.055,1.055,0,0,0,.107-.4Z" transform="translate(1101.166 4140.855)" fill="#fff"/>
        <path id="Vector-20" data-name="Vector" d="M0,3.907C0,2.52.7,1.641,1.778,1.641a1.384,1.384,0,0,1,.766.189,1.431,1.431,0,0,1,.548.581h.063V0H4V6.1H3.19V5.411H3.123a1.5,1.5,0,0,1-.568.575,1.457,1.457,0,0,1-.777.191C.688,6.177,0,5.3,0,3.907Zm.873,0C.873,4.838,1.3,5.4,2.018,5.4S3.171,4.83,3.171,3.911,2.726,2.419,2.018,2.419.873,2.984.873,3.907Z" transform="translate(1105.873 4139.226)" fill="#fff"/>
        <path id="Vector-21" data-name="Vector" d="M.01,2.278A2.13,2.13,0,0,1,.1,1.423,2.091,2.091,0,0,1,.528.681a2.033,2.033,0,0,1,.681-.5,1.985,1.985,0,0,1,1.642,0,2.031,2.031,0,0,1,.681.5,2.091,2.091,0,0,1,.424.742,2.128,2.128,0,0,1,.095.855,2.129,2.129,0,0,1-.093.856,2.091,2.091,0,0,1-.424.744,2.03,2.03,0,0,1-.681.5,1.984,1.984,0,0,1-1.644,0,2.03,2.03,0,0,1-.681-.5A2.092,2.092,0,0,1,.1,3.134,2.129,2.129,0,0,1,.01,2.278Zm3.171,0C3.18,1.326,2.763.77,2.031.77S.883,1.326.883,2.278,1.3,3.789,2.031,3.789,3.18,3.233,3.18,2.278Z" transform="translate(1113.359 4140.855)" fill="#fff"/>
        <path id="Vector-22" data-name="Vector" d="M0,.089H.814v.7H.877a1.3,1.3,0,0,1,.517-.6A1.257,1.257,0,0,1,2.155,0,1.363,1.363,0,0,1,2.768.1,1.393,1.393,0,0,1,3.28.455,1.436,1.436,0,0,1,3.59,1a1.461,1.461,0,0,1,.048.633V4.479H2.792V1.855c0-.706-.3-1.056-.924-1.056a.961.961,0,0,0-.414.072.982.982,0,0,0-.347.243,1.012,1.012,0,0,0-.216.369,1.029,1.029,0,0,0-.046.428V4.479H0Z" transform="translate(1118.543 4140.851)" fill="#fff"/>
        <path id="Vector-23" data-name="Vector" d="M1.527,0V1.113h.928v.73H1.527V4.1c0,.46.185.661.606.661a2.75,2.75,0,0,0,.322-.02v.722a2.694,2.694,0,0,1-.46.044C1.054,5.508.68,5.169.68,4.322V1.843H0v-.73H.68V0Z" transform="translate(1125.432 4139.847)" fill="#fff"/>
        <path id="Vector-24" data-name="Vector" d="M0,0H.838V2.419H.905a1.337,1.337,0,0,1,.532-.6,1.289,1.289,0,0,1,.774-.182,1.382,1.382,0,0,1,.607.1,1.418,1.418,0,0,1,.506.359,1.456,1.456,0,0,1,.309.546,1.473,1.473,0,0,1,.053.628V6.1H2.84V3.483c0-.7-.318-1.056-.916-1.056a.979.979,0,0,0-.428.06,1,1,0,0,0-.364.239A1.039,1.039,0,0,0,.9,3.1a1.052,1.052,0,0,0-.055.439V6.1H0Z" transform="translate(1129.041 4139.226)" fill="#fff"/>
        <path id="Vector-25" data-name="Vector" d="M3.853,3.29a1.78,1.78,0,0,1-.7.98A1.707,1.707,0,0,1,2,4.56,1.9,1.9,0,0,1,1.175,4.4,1.947,1.947,0,0,1,.5,3.9a2.006,2.006,0,0,1-.411-.747,2.043,2.043,0,0,1-.067-.855,2.085,2.085,0,0,1,.068-.858A2.054,2.054,0,0,1,.495.685,1.981,1.981,0,0,1,1.172.176,1.935,1.935,0,0,1,1.993,0C3.185,0,3.9.835,3.9,2.213v.3H.879v.048a1.2,1.2,0,0,0,.059.476,1.165,1.165,0,0,0,.241.411,1.124,1.124,0,0,0,.382.276,1.108,1.108,0,0,0,.459.094,1,1,0,0,0,.589-.107,1.036,1.036,0,0,0,.43-.425ZM.879,1.875H3.043a1.091,1.091,0,0,0-.057-.434,1.08,1.08,0,0,0-.224-.374A1.036,1.036,0,0,0,2.409.818a1.007,1.007,0,0,0-.42-.081A1.071,1.071,0,0,0,1.562.82a1.094,1.094,0,0,0-.362.246,1.13,1.13,0,0,0-.24.371,1.148,1.148,0,0,0-.081.437Z" transform="translate(1133.804 4140.855)" fill="#fff"/>
      </g>
    </g>
  </g>
</svg>
