<svg xmlns="http://www.w3.org/2000/svg" width="50" height="50" viewBox="0 0 50 50">
  <g id="Group_240286" data-name="Group 240286" transform="translate(-533 -236)">
    <g id="Ellipse_1" data-name="Ellipse 1" transform="translate(533 236)" fill="#fff" stroke="#004392" stroke-width="0.4">
      <circle cx="25" cy="25" r="25" stroke="none"/>
      <circle cx="25" cy="25" r="24.8" fill="none"/>
    </g>
    <path id="Vector" d="M18.633,8.358a6.351,6.351,0,0,0-2.012.4,5.992,5.992,0,0,1-1.671.4A7.429,7.429,0,0,1,13.341,8.8a7.591,7.591,0,0,0-2.063-.353,4.037,4.037,0,0,0-3.314,1.683A6.87,6.87,0,0,0,6.65,14.485,10.263,10.263,0,0,0,7.082,17.4a13.824,13.824,0,0,0,1.285,2.956,8.673,8.673,0,0,0,1.739,2.268,2.7,2.7,0,0,0,1.762.756,4.284,4.284,0,0,0,1.54-.392,4.461,4.461,0,0,1,1.666-.392,5.362,5.362,0,0,1,1.756.375,5.184,5.184,0,0,0,1.631.375,2.479,2.479,0,0,0,1.5-.569,6.8,6.8,0,0,0,1.5-1.717,13.884,13.884,0,0,0,.858-1.489,9.643,9.643,0,0,0,.574-1.433,3.508,3.508,0,0,1-1.842-1.466,4.45,4.45,0,0,1-.807-2.6,4.287,4.287,0,0,1,.415-1.825,6.245,6.245,0,0,1,1.677-1.961,5.411,5.411,0,0,0-1.705-1.461,4.32,4.32,0,0,0-2-.46ZM18.439,3.97A4.638,4.638,0,0,0,15.523,5.7a5.214,5.214,0,0,0-.9,2.99A4.042,4.042,0,0,0,16.041,8.4a3.541,3.541,0,0,0,1.046-.75,4.715,4.715,0,0,0,1.08-1.6,4.365,4.365,0,0,0,.341-1.591c0-.076,0-.151-.011-.228a1.364,1.364,0,0,0-.057-.261ZM15,0A15,15,0,1,1,0,15,15,15,0,0,1,15,0Z" transform="translate(543 246)" fill-rule="evenodd"/>
  </g>
</svg>
