<svg xmlns="http://www.w3.org/2000/svg" width="50.018" height="50.018" viewBox="0 0 50.018 50.018">
  <g id="Group_240261" data-name="Group 240261" transform="translate(-293 -3971)">
    <rect id="school_1" data-name="school 1" width="50" height="50" transform="translate(293 3971)" fill="none"/>
    <path id="Vector" d="M50.018,25.009A25.009,25.009,0,1,1,25.009,0,25.009,25.009,0,0,1,50.018,25.009Z" transform="translate(293 3971)" fill="#29af33"/>
    <path id="Vector-2" data-name="Vector" d="M27.268.706H.353A.353.353,0,0,1,.353,0H27.268a.353.353,0,0,1,0,.706Z" transform="translate(303.978 4008.751)" fill="#fff" fill-rule="evenodd"/>
    <path id="Vector-3" data-name="Vector" d="M5.436,8.26H0a1.138,1.138,0,0,0,.053-.353V0H5.789V7.907a.354.354,0,0,1-.353.353ZM1.906,2.506H3.883V4.359H1.906Zm3.23,2.206a.354.354,0,0,0-.353-.353H4.589V2.153A.354.354,0,0,0,4.236,1.8H1.553a.343.343,0,0,0-.353.353V4.359H.988a.353.353,0,0,0,0,.706H4.783A.354.354,0,0,0,5.136,4.712Z" transform="translate(325.175 4001.198)" fill="#fff" fill-rule="evenodd"/>
    <path id="Vector-4" data-name="Vector" d="M7.483,4.553H0V0H5.383a.342.342,0,0,1,.3.176L7.766,3.989a.5.5,0,0,1,.071.212.354.354,0,0,1-.353.353ZM5.4,1.571a.354.354,0,0,0-.353-.353H4.112a.353.353,0,0,0,0,.706h.935A.354.354,0,0,0,5.4,1.571Zm-2.824,0a.354.354,0,0,0-.353-.353H1.271a.353.353,0,0,0,0,.706h.953A.354.354,0,0,0,2.577,1.571ZM6.16,2.983a.354.354,0,0,0-.353-.353H4.854a.353.353,0,1,0,0,.706h.953A.354.354,0,0,0,6.16,2.983Zm-3.177,0A.354.354,0,0,0,2.63,2.63H1.694a.353.353,0,1,0,0,.706H2.63A.354.354,0,0,0,2.983,2.983Z" transform="translate(325.228 3995.938)" fill="#fff" fill-rule="evenodd"/>
    <path id="Vector-5" data-name="Vector" d="M12.69,15.6H9.283a.354.354,0,0,0,.353-.353V8.842a.354.354,0,0,0-.353-.353H3.759a.354.354,0,0,0-.353.353v6.407a.354.354,0,0,0,.353.353H.353A.354.354,0,0,1,0,15.249V0A1.141,1.141,0,0,0,.353.071H12.69A1.141,1.141,0,0,0,13.043,0V15.249a.354.354,0,0,1-.353.353ZM9.619,3.918A3.1,3.1,0,1,0,6.53,7.024,3.1,3.1,0,0,0,9.619,3.918Z" transform="translate(311.479 3993.855)" fill="#fff" fill-rule="evenodd"/>
    <path id="Vector-6" data-name="Vector" d="M12.7,6.57H.36A.362.362,0,0,1,.024,6.34a.355.355,0,0,1,.088-.388L6.29.093a.353.353,0,0,1,.477,0l6.177,5.86a.355.355,0,0,1,.088.388.362.362,0,0,1-.335.229Z" transform="translate(311.472 3986.65)" fill="#fff" fill-rule="evenodd"/>
    <path id="Vector-7" data-name="Vector" d="M.353,2.277A.343.343,0,0,1,0,1.924V.353A.343.343,0,0,1,.353,0,.354.354,0,0,1,.706.353V1.924A.354.354,0,0,1,.353,2.277Z" transform="translate(317.656 3994.103)" fill="#fff" fill-rule="evenodd"/>
    <path id="Vector-8" data-name="Vector" d="M1.924.706H.353A.353.353,0,0,1,.353,0H1.924a.353.353,0,1,1,0,.706Z" transform="translate(319.403 3997.421)" fill="#fff" fill-rule="evenodd"/>
    <path id="Vector-9" data-name="Vector" d="M.353,2.294A.343.343,0,0,1,0,1.941V.353A.343.343,0,0,1,.353,0,.354.354,0,0,1,.706.353V1.941A.354.354,0,0,1,.353,2.294Z" transform="translate(317.656 3999.168)" fill="#fff" fill-rule="evenodd"/>
    <path id="Vector-10" data-name="Vector" d="M1.924.706H.353A.353.353,0,0,1,.353,0H1.924a.343.343,0,0,1,.353.353A.343.343,0,0,1,1.924.706Z" transform="translate(314.32 3997.421)" fill="#fff" fill-rule="evenodd"/>
    <path id="Vector-11" data-name="Vector" d="M1.024,1.394H.353A.354.354,0,0,1,0,1.041V.353a.353.353,0,1,1,.706,0V.688h.318a.353.353,0,1,1,0,.706Z" transform="translate(317.62 3996.732)" fill="#fff" fill-rule="evenodd"/>
    <path id="Vector-12" data-name="Vector" d="M.353,4.8A.343.343,0,0,1,0,4.448V.353A.343.343,0,0,1,.353,0,.354.354,0,0,1,.706.353V4.448A.354.354,0,0,1,.353,4.8Z" transform="translate(317.656 3982.542)" fill="#fff" fill-rule="evenodd"/>
    <path id="Vector-13" data-name="Vector" d="M3.142,3.106H.353A.343.343,0,0,1,0,2.753V.353A.343.343,0,0,1,.353,0H3.142a.354.354,0,0,1,.353.353v2.4A.354.354,0,0,1,3.142,3.106Z" transform="translate(317.656 3982.542)" fill="#fff" fill-rule="evenodd"/>
    <path id="Vector-14" data-name="Vector" d="M.353,7.483A.385.385,0,0,1,0,7.06V.406A.379.379,0,0,1,.353,0,.391.391,0,0,1,.706.406V7.06A.4.4,0,0,1,.353,7.483Z" transform="translate(317.656 4001.798)" fill="#fff" fill-rule="evenodd"/>
    <path id="Vector-15" data-name="Vector" d="M0,7.907V0H5.718V7.907a1.138,1.138,0,0,0,.053.353H.353A.354.354,0,0,1,0,7.907ZM3.883,4.359H1.888V2.506H3.883ZM.988,5.065H4.783a.353.353,0,0,0,0-.706H4.589V2.153A.354.354,0,0,0,4.236,1.8h-2.7a.354.354,0,0,0-.353.353V4.359H.988a.353.353,0,0,0,0,.706Z" transform="translate(305.055 4001.198)" fill="#fff" fill-rule="evenodd"/>
    <path id="Vector-16" data-name="Vector" d="M0,4.2a.5.5,0,0,1,.071-.212L2.153.176A.35.35,0,0,1,2.471,0H7.836V4.553H.353A.354.354,0,0,1,0,4.2ZM2.789,1.924h.935a.353.353,0,0,0,0-.706H2.789a.353.353,0,0,0,0,.706Zm2.824,0h.953a.353.353,0,1,0,0-.706H5.612a.353.353,0,1,0,0,.706ZM2.03,3.336h.953a.353.353,0,0,0,0-.706H2.03a.353.353,0,1,0,0,.706Zm3.177,0h.935a.353.353,0,1,0,0-.706H5.206a.353.353,0,1,0,0,.706Z" transform="translate(302.937 3995.938)" fill="#fff" fill-rule="evenodd"/>
  </g>
</svg>
