<svg xmlns="http://www.w3.org/2000/svg" width="20.4" height="20.375" viewBox="0 0 20.4 20.375">
  <path id="Vector" d="M0,15.3V1.071A1.061,1.061,0,0,1,.332.357.949.949,0,0,1,1.02,0H14.255a.983.983,0,0,1,.714.344,1.041,1.041,0,0,1,.332.727v9.078a1.061,1.061,0,0,1-.332.714.97.97,0,0,1-.714.357H4.08Zm5.126,1.02a.988.988,0,0,1-.7-.357,1.044,1.044,0,0,1-.344-.714v-2.5H16.83V4.08h2.55a.949.949,0,0,1,.689.357,1.084,1.084,0,0,1,.332.74v15.2L16.346,16.32ZM13.77,1.53H1.53V11.6L3.443,9.69H13.77Z" fill="#004392"/>
</svg>
