<svg xmlns="http://www.w3.org/2000/svg" width="50.018" height="50.018" viewBox="0 0 50.018 50.018">
  <g id="Group_240264" data-name="Group 240264" transform="translate(-857 -3971)">
    <path id="Vector" d="M50.018,25.009A25.009,25.009,0,1,1,25.009,0,25.009,25.009,0,0,1,50.018,25.009Z" transform="translate(857 3971)" fill="#fe4c40"/>
    <path id="Vector-2" data-name="Vector" d="M.707,2.254A3.719,3.719,0,0,0,0,.092,4.387,4.387,0,0,1,.895,0H3.8a4.382,4.382,0,0,1,.9.093A3.716,3.716,0,0,0,4,2.1a3.743,3.743,0,0,0-3.29.153Z" transform="translate(879.675 3990.833)" fill="#fff"/>
    <path id="Vector-3" data-name="Vector" d="M6.857,3.428A3.428,3.428,0,1,1,3.428,0,3.428,3.428,0,0,1,6.857,3.428Z" transform="translate(878.595 3983.743)" fill="#fff"/>
    <path id="Vector-4" data-name="Vector" d="M1.822,6.018A3.915,3.915,0,0,0,0,3.111,3.165,3.165,0,1,1,1.822,6.018Z" transform="translate(884.251 3990.132)" fill="#fff"/>
    <path id="Vector-5" data-name="Vector" d="M6.317,3.159c0,.06-.006.118-.009.177a3.913,3.913,0,0,0-1.47,2.494A3.156,3.156,0,1,1,6.317,3.159Z" transform="translate(873.48 3990.132)" fill="#fff"/>
    <path id="Vector-6" data-name="Vector" d="M3.156,0A3.159,3.159,0,1,1,1.821,6.018,3.913,3.913,0,0,0,0,3.111,3.157,3.157,0,0,1,3.156,0Z" transform="translate(889.459 3986.954)" fill="#fff"/>
    <path id="Vector-7" data-name="Vector" d="M6.318,3.159A3.159,3.159,0,1,1,3.159,0,3.159,3.159,0,0,1,6.318,3.159Z" transform="translate(879.023 3993.393)" fill="#fff"/>
    <path id="Vector-8" data-name="Vector" d="M7.9,4.044V7.323H7.883l-.211.107a10.872,10.872,0,0,1-4.239.891V7.311A4.807,4.807,0,0,0,0,2.711,3.893,3.893,0,0,0,1.2,0h2.66A4.048,4.048,0,0,1,7.9,4.044Z" transform="translate(884.886 3996.665)" fill="#fff"/>
    <path id="Vector-9" data-name="Vector" d="M7.905,4.044V7.323H7.883l-.211.107a10.86,10.86,0,0,1-4.239.891V7.311A4.807,4.807,0,0,0,0,2.711,3.893,3.893,0,0,0,1.2,0H3.861A4.049,4.049,0,0,1,7.905,4.044Z" transform="translate(890.095 3993.487)" fill="#fff"/>
    <path id="Vector-10" data-name="Vector" d="M4.788,7.311V8.3A18.962,18.962,0,0,1,.234,7.445L.008,7.374,0,7.323V4.045A4.049,4.049,0,0,1,4.045,0H6.724c.1,0,.2.008.3.015a3.9,3.9,0,0,0,1.2,2.7,4.808,4.808,0,0,0-3.433,4.6Z" transform="translate(871.254 3996.665)" fill="#fff"/>
    <path id="Vector-11" data-name="Vector" d="M10.768,4.044V7.323h-.022l-.211.107a11.294,11.294,0,0,1-4.8.9,18.42,18.42,0,0,1-5.5-.887L.008,7.374,0,7.323V4.044A4.05,4.05,0,0,1,4.045,0h2.68a4.047,4.047,0,0,1,4.043,4.044Z" transform="translate(876.797 3999.926)" fill="#fff"/>
    <path id="Vector-12" data-name="Vector" d="M0,3.159a3.158,3.158,0,0,1,6.315-.048A3.915,3.915,0,0,0,4.494,6.018,3.153,3.153,0,0,1,0,3.159Z" transform="translate(868.226 3987.054)" fill="#fff"/>
    <path id="Vector-13" data-name="Vector" d="M4.473,7.311v1.01A10.878,10.878,0,0,1,.234,7.43L.023,7.323H0V4.045A4.049,4.049,0,0,1,4.044,0H6.7a3.9,3.9,0,0,0,1.2,2.712,4.806,4.806,0,0,0-3.432,4.6Z" transform="translate(866 3993.587)" fill="#fff"/>
    <path id="Vector-14" data-name="Vector" d="M0,2.315A3.129,3.129,0,0,1,3.018,0a3.1,3.1,0,0,1,2.09.8A4.023,4.023,0,0,0,5.546,4.96a3.176,3.176,0,0,1-.343.4,3.737,3.737,0,0,0-1.831-.48,4.263,4.263,0,0,0-1.509.342A3.758,3.758,0,0,0,0,2.315Z" transform="translate(873.217 3984.599)" fill="#fff"/>
    <path id="Vector-15" data-name="Vector" d="M.7,2.522A3.972,3.972,0,0,0,.383.977,3.122,3.122,0,0,1,5.6,2.091a3.764,3.764,0,0,0-2.09,3.054A4.685,4.685,0,0,0,2.047,4.88a3.732,3.732,0,0,0-1.663.395A3.125,3.125,0,0,1,0,4.783,3.994,3.994,0,0,0,.7,2.522Z" transform="translate(885.31 3984.597)" fill="#fff"/>
  </g>
</svg>
