<svg xmlns="http://www.w3.org/2000/svg" width="50.018" height="50.018" viewBox="0 0 50.018 50.018">
  <g id="Group_240263" data-name="Group 240263" transform="translate(-667 -3971)">
    <path id="Vector" d="M50.018,25.009A25.009,25.009,0,1,1,25.009,0,25.009,25.009,0,0,1,50.018,25.009Z" transform="translate(667 3971)" fill="#ffc536"/>
    <path id="Vector-2" data-name="Vector" d="M6.955,1.889l5.4-1.8V1.613a.819.819,0,0,1-.526.766C5.977,4.628,6.393,4.493,6.176,4.493s.193.133-5.649-2.114a.819.819,0,0,1-.486-.515A8.194,8.194,0,0,1,0,0L5.363,1.877a2.46,2.46,0,0,0,1.592.012Z" transform="translate(685.823 3988.856)" fill="#fff"/>
    <path id="Vector-3" data-name="Vector" d="M.548,2.929C8.913,0,8.855,0,9.057,0s.149.005,8.908,2.925a.819.819,0,0,1,.56.824s0,.126,0,5.72a.821.821,0,0,1-1.641,0V4.842L9.316,7.365a.817.817,0,0,1-.531,0C-.118,4.244.542,4.5.345,4.373a.822.822,0,0,1,.2-1.444Z" transform="translate(682.943 3981.824)" fill="#fff"/>
    <path id="Vector-4" data-name="Vector" d="M28,.821V18.534a.821.821,0,0,1-.82.82H19.763v1.654h2.475a.82.82,0,0,1,0,1.641H5.763a.82.82,0,1,1,0-1.641H8.237V19.355H.821A.821.821,0,0,1,0,18.534V.82A.821.821,0,0,1,.821,0H3.3A2.463,2.463,0,0,0,4.95,2.323l1.235.433V4.942a2.461,2.461,0,0,0,1.578,2.3L13.116,9.3a2.461,2.461,0,0,0,1.768,0c5.835-2.245,5.46-2.088,5.686-2.216a2.461,2.461,0,0,0,4.541-1.317V0H27.18A.821.821,0,0,1,28,.82ZM8.231,12.765a.82.82,0,0,0-.82-.821h-3.3a.82.82,0,0,0-.821.821v3.295a.82.82,0,0,0,.821.82h3.3a.82.82,0,0,0,.821-.82Zm16.475,3.295a.821.821,0,0,0-.82-.821H10.7a.82.82,0,1,0,0,1.641h13.18A.82.82,0,0,0,24.705,16.059Zm0-3.295a.82.82,0,0,0-.82-.821H10.7a.821.821,0,1,0,0,1.641h13.18A.821.821,0,0,0,24.705,12.765Z" transform="translate(678 3985.527)" fill="#fff"/>
  </g>
</svg>
