<svg xmlns="http://www.w3.org/2000/svg" width="40" height="40" viewBox="0 0 40 40">
  <g id="Group_240295" data-name="Group 240295" transform="translate(-1249 -781)">
    <path id="mask" d="M0,20A20,20,0,1,1,20,40,20,20,0,0,1,0,20Z" transform="translate(1249 781)" fill="rgba(0,0,0,0.26)" fill-rule="evenodd"/>
    <path id="Vector" d="M0,18.182V13.636A1.916,1.916,0,0,1,.582,12.23a1.916,1.916,0,0,1,1.406-.582H5.994a1.894,1.894,0,0,1,.923.241,2.3,2.3,0,0,1,.753.668,5.637,5.637,0,0,0,2.1,1.847,5.96,5.96,0,0,0,7.585-1.847,2.351,2.351,0,0,1,.739-.668,1.815,1.815,0,0,1,.909-.241h4.006A1.988,1.988,0,0,1,25,13.636v4.545H17.614V14.8A7.375,7.375,0,0,1,15.27,16.25a7.606,7.606,0,0,1-2.77.511,7.5,7.5,0,0,1-2.756-.511A7.769,7.769,0,0,1,7.386,14.8v3.381Zm12.5-4.83a4.185,4.185,0,0,1-1.918-.469,3.95,3.95,0,0,1-1.491-1.293A3.722,3.722,0,0,0,8,10.54,4.025,4.025,0,0,0,6.619,10,5.424,5.424,0,0,1,9.2,8.693a13.227,13.227,0,0,1,3.3-.455,13.392,13.392,0,0,1,3.31.455A5.435,5.435,0,0,1,18.409,10a4.025,4.025,0,0,0-1.378.54,3.722,3.722,0,0,0-1.094,1.051,3.95,3.95,0,0,1-1.491,1.293A4.242,4.242,0,0,1,12.5,13.352ZM3.409,9.659a3.006,3.006,0,0,1-2.2-.923,3.006,3.006,0,0,1-.923-2.2,2.992,2.992,0,0,1,.923-2.216,3.029,3.029,0,0,1,2.2-.909,3.015,3.015,0,0,1,2.216.909,3.015,3.015,0,0,1,.909,2.216,3.029,3.029,0,0,1-.909,2.2A2.992,2.992,0,0,1,3.409,9.659Zm18.182,0a3.006,3.006,0,0,1-2.2-.923,3.006,3.006,0,0,1-.923-2.2,2.992,2.992,0,0,1,.923-2.216,3.118,3.118,0,0,1,5.327,2.216,3.029,3.029,0,0,1-.909,2.2A2.992,2.992,0,0,1,21.591,9.659ZM12.5,6.25a3.006,3.006,0,0,1-2.2-.923,3.006,3.006,0,0,1-.923-2.2A2.992,2.992,0,0,1,10.3.909a3.138,3.138,0,0,1,4.418,0,3.015,3.015,0,0,1,.909,2.216,3.029,3.029,0,0,1-.909,2.2A2.992,2.992,0,0,1,12.5,6.25Z" transform="translate(1257 792)" fill="#fff"/>
  </g>
</svg>
