<svg xmlns="http://www.w3.org/2000/svg" width="40" height="40" viewBox="0 0 40 40">
  <path id="Vector" d="M34.142,5.858A20,20,0,1,1,20,0,20,20,0,0,1,34.142,5.858Zm-9.093,12.03a.526.526,0,0,0-.491-.372H21.316V15.187c0-1.058.279-1.766,1.758-1.789h1.366a.526.526,0,0,0,.526-.526V10.526A.526.526,0,0,0,24.439,10H22.211c-2.718,0-4.579,1.7-4.579,4.824v2.7H15.455a.526.526,0,0,0-.526.526v2.784a.526.526,0,0,0,.526.526h2.192l-.016,8.261A.374.374,0,0,0,18,30h2.947a.374.374,0,0,0,.368-.376V21.361h2.895a.526.526,0,0,0,.526-.468l.332-2.787A.526.526,0,0,0,25.049,17.888Z" fill="#fff"/>
</svg>
