<svg xmlns="http://www.w3.org/2000/svg" width="30" height="30" viewBox="0 0 30 30">
  <g id="Group_240244" data-name="Group 240244" transform="translate(-409 -246)">
    <path id="Vector_22" d="M30,15A15,15,0,1,1,15,0,15,15,0,0,1,30,15Z" transform="translate(409 246)" fill="#1977f3"/>
    <path id="Vector_23" d="M8.5,13.479V23.961a15.32,15.32,0,0,1-2.344.181,15.058,15.058,0,0,1-2.344-.181V13.479H0V9.142H3.81V5.837C3.81,2.076,6.05,0,9.475,0a23.059,23.059,0,0,1,3.358.293V3.985H10.941A2.169,2.169,0,0,0,8.5,6.328V9.142h4.16l-.664,4.337Z" transform="translate(417.847 251.858)" fill="#fff"/>
  </g>
</svg>
