<svg xmlns="http://www.w3.org/2000/svg" width="29.982" height="29.897" viewBox="0 0 29.982 29.897">
  <g id="Group_240245" data-name="Group 240245" transform="translate(-342 -246)">
    <path id="Vector_18" d="M10.13,14.052l-.315-.031L5.274,10.583,5.3,10.4A7.281,7.281,0,0,0,8.43,5.547H0V0H14.362a12.53,12.53,0,0,1,.323,3.056,14.45,14.45,0,0,1-4.555,11Z" transform="translate(357.297 258.225)" fill="#4285f4"/>
    <path id="Vector_19" d="M0,3.754l.062-.168L4.784.015,4.963,0a9.19,9.19,0,0,0,8.7,6.212,9.205,9.205,0,0,0,5.3-1.495L23.8,8.371a14.78,14.78,0,0,1-10.13,3.621A15.326,15.326,0,0,1,0,3.754Z" transform="translate(343.632 263.905)" fill="#34a853"/>
    <path id="Vector_20" d="M1.632,13.493a14.614,14.614,0,0,1,0-13.42L1.788,0,6.569,3.628l.009.2a9.47,9.47,0,0,0-.493,2.956,9.013,9.013,0,0,0,.51,2.956Z" transform="translate(342 254.166)" fill="#fbbc05"/>
    <path id="Vector_21" d="M4.946,11.992,0,8.238A15.326,15.326,0,0,1,13.666,0,14.886,14.886,0,0,1,23.9,3.887L19.58,8.006A8.583,8.583,0,0,0,13.666,5.78a9.228,9.228,0,0,0-8.719,6.212Z" transform="translate(343.632 246)" fill="#eb4335"/>
  </g>
</svg>
