<svg xmlns="http://www.w3.org/2000/svg" xmlns:xlink="http://www.w3.org/1999/xlink" width="126.284" height="39" viewBox="0 0 126.284 39">
  <defs>
    <linearGradient id="linear-gradient" x1="0.914" y1="0.049" x2="0" y2="0.26" gradientUnits="objectBoundingBox">
      <stop offset="0" stop-color="#00a0ff"/>
      <stop offset="0.007" stop-color="#00a1ff"/>
      <stop offset="0.26" stop-color="#00beff"/>
      <stop offset="0.512" stop-color="#00d2ff"/>
      <stop offset="0.76" stop-color="#00dfff"/>
      <stop offset="1" stop-color="#00e3ff"/>
    </linearGradient>
    <linearGradient id="linear-gradient-2" x1="1.076" y1="0.5" x2="0" y2="0.5" gradientUnits="objectBoundingBox">
      <stop offset="0" stop-color="#ffe000"/>
      <stop offset="0.409" stop-color="#ffbd00"/>
      <stop offset="0.775" stop-color="orange"/>
      <stop offset="1" stop-color="#ff9c00"/>
    </linearGradient>
    <linearGradient id="linear-gradient-3" x1="0.862" y1="0.179" x2="0" y2="2.261" gradientUnits="objectBoundingBox">
      <stop offset="0" stop-color="#ff3a44"/>
      <stop offset="1" stop-color="#c31162"/>
    </linearGradient>
    <linearGradient id="linear-gradient-4" x2="0.239" y2="0.389" gradientUnits="objectBoundingBox">
      <stop offset="0" stop-color="#32a071"/>
      <stop offset="0.068" stop-color="#2da771"/>
      <stop offset="0.476" stop-color="#15cf74"/>
      <stop offset="0.801" stop-color="#06e775"/>
      <stop offset="1" stop-color="#00f076"/>
    </linearGradient>
  </defs>
  <g id="Group_240293" data-name="Group 240293" transform="translate(-1178.716 -4131)">
    <g id="Group_240268" data-name="Group 240268">
      <path id="Vector" d="M121.605,39H4.679A4.793,4.793,0,0,1,0,34.125V4.875A4.787,4.787,0,0,1,4.679,0H121.605a4.788,4.788,0,0,1,4.679,4.875v29.25A4.8,4.8,0,0,1,121.605,39Z" transform="translate(1178.716 4131)" fill-rule="evenodd"/>
      <path id="Vector-2" data-name="Vector" d="M4.679.78A4.019,4.019,0,0,0,.746,4.875v29.25a4.027,4.027,0,0,0,3.933,4.095H121.605a4.019,4.019,0,0,0,3.933-4.095V4.875A4.027,4.027,0,0,0,121.605.78Zm121.6,4.095v29.25A4.788,4.788,0,0,1,121.605,39H4.679A4.787,4.787,0,0,1,0,34.125V4.875A4.793,4.793,0,0,1,4.679,0H121.605a4.8,4.8,0,0,1,4.679,4.875Z" transform="translate(1178.716 4131)" fill="#a6a6a6" fill-rule="evenodd"/>
      <path id="Vector-3" data-name="Vector" d="M28.094,6.3a2.774,2.774,0,0,1-2.116-.917,3.2,3.2,0,0,1-.855-2.237A3.128,3.128,0,0,1,25.978.917,2.766,2.766,0,0,1,28.092,0a2.8,2.8,0,0,1,2.116.917,3.194,3.194,0,0,1,.855,2.234,3.2,3.2,0,0,1-.855,2.235,2.751,2.751,0,0,1-2.114.919ZM3,6.3A2.874,2.874,0,0,1,.876,5.4,3.112,3.112,0,0,1,0,3.154,3.111,3.111,0,0,1,.876.907,2.837,2.837,0,0,1,3,0,2.85,2.85,0,0,1,4.189.26a2.407,2.407,0,0,1,.9.676l.056.071-.63.647-.065-.08A1.755,1.755,0,0,0,2.992.914a1.974,1.974,0,0,0-1.457.622A2.228,2.228,0,0,0,.922,3.156a2.228,2.228,0,0,0,.613,1.619A1.974,1.974,0,0,0,2.992,5.4a1.984,1.984,0,0,0,1.5-.622,1.72,1.72,0,0,0,.427-1.014H2.9V2.852H5.782l.012.083a3.472,3.472,0,0,1,.042.457,2.81,2.81,0,0,1-.72,2.018A2.749,2.749,0,0,1,3,6.3Zm33.363-.129h-.89L32.75,1.612l.023.822V6.173h-.89V.131H32.9l.028.046,2.563,4.3-.023-.819V.131h.9Zm-14.957,0h-.9V1.041H18.943V.131h4.026v.909H21.406V6.176Zm-3.2,0h-.9V.131h.9Zm-5.053,0h-.9V1.041H10.694V.131H14.72v.909H13.156Zm-3.032-.01H6.677V.131h3.448v.909H7.578V2.7h2.3v.9h-2.3V5.257h2.546Zm16.513-1.4a1.946,1.946,0,0,0,1.457.632,1.9,1.9,0,0,0,1.457-.632,2.244,2.244,0,0,0,.595-1.61,2.249,2.249,0,0,0-.592-1.61A1.95,1.95,0,0,0,28.1.912a1.889,1.889,0,0,0-1.454.632,2.244,2.244,0,0,0-.595,1.61A2.247,2.247,0,0,0,26.638,4.763Z" transform="translate(1217.147 4137.597)" fill="#fff"/>
      <path id="Vector-4" data-name="Vector" d="M29.191,8.753a3.979,3.979,0,1,1-7.95,0,3.979,3.979,0,1,1,7.95,0Zm-1.74-.01a2.25,2.25,0,1,0-4.47,0,2.25,2.25,0,1,0,4.47,0Zm-6.932.01a3.979,3.979,0,1,1-7.95,0,3.979,3.979,0,1,1,7.95,0Zm-1.74-.01a2.342,2.342,0,0,0-2.235-2.514,2.343,2.343,0,0,0-2.235,2.514,2.355,2.355,0,0,0,2.235,2.514A2.349,2.349,0,0,0,18.778,8.743ZM6.222,5.852H11.9A5.667,5.667,0,0,1,12,6.947a5.988,5.988,0,0,1-1.459,4.116,5.505,5.505,0,0,1-4.3,1.809A6.376,6.376,0,0,1,0,6.436,6.384,6.384,0,0,1,6.242,0a5.721,5.721,0,0,1,4.212,1.777L9.265,3.022A4.2,4.2,0,0,0,6.233,1.765,4.523,4.523,0,0,0,1.824,6.446a4.523,4.523,0,0,0,4.409,4.68A4.021,4.021,0,0,0,9.339,9.838a3.784,3.784,0,0,0,.911-2.21H6.224V5.872s0-.022,0-.019ZM48.62,7.7l-5.3,2.3a2.018,2.018,0,0,0,1.926,1.257,2.236,2.236,0,0,0,1.947-1.148l1.345.943a3.9,3.9,0,0,1-3.3,1.841A3.969,3.969,0,0,1,41.3,8.743,3.864,3.864,0,0,1,45.04,4.6a3.719,3.719,0,0,1,3.394,2.643s.186.464.186.462Zm-2.049-.615A1.52,1.52,0,0,0,45.1,6.207a2.235,2.235,0,0,0-2.07,2.417ZM38.725.457h1.74V12.643h-1.74Zm-2.848,5.07V4.843h1.645v7.443c0,3.066-1.728,4.323-3.768,4.323a3.794,3.794,0,0,1-3.508-2.448l1.512-.661a2.209,2.209,0,0,0,2,1.473c1.3,0,2.112-.853,2.112-2.436v-.6h-.063a2.686,2.686,0,0,1-2.091.943,4.016,4.016,0,0,1-3.8-4.129,4.045,4.045,0,0,1,3.8-4.16,2.692,2.692,0,0,1,2.091.931h.072Zm.1,3.229A2.3,2.3,0,0,0,33.87,6.232a2.348,2.348,0,0,0-2.2,2.524,2.335,2.335,0,0,0,2.2,2.5A2.265,2.265,0,0,0,35.982,8.756ZM60.4,4.248a3.766,3.766,0,0,1-3.82,3.781H54.16v4.615h-1.74V.457h4.161A3.77,3.77,0,0,1,60.4,4.248Zm-1.731-.012a2.068,2.068,0,0,0-2.04-2.091H54.158V6.327h2.474a2.08,2.08,0,0,0,2.04-2.091ZM70.906,7.961v4.668H69.229v-.943h-.063a2.423,2.423,0,0,1-2.214,1.191,2.74,2.74,0,0,1-2.888-2.687c0-1.787,1.689-2.74,3.355-2.74a3.766,3.766,0,0,1,1.812.467V7.788A1.7,1.7,0,0,0,67.4,6.217a1.638,1.638,0,0,0-1.584.9l-1.543-.671a3.528,3.528,0,0,1,6.635,1.515ZM69.22,9.327a2.92,2.92,0,0,0-1.585-.411c-.848,0-1.843.357-1.843,1.3,0,.749.8,1.041,1.366,1.041A2.133,2.133,0,0,0,69.22,9.327Zm9.729-4.483-4.779,11.5H72.358l1.77-4.107L71.023,4.843h1.872l2.07,5.286h.062l2-5.286ZM61.363.457H63.1V12.643h-1.74Z" transform="translate(1216.971 4147.606)" fill="#fff" fill-rule="evenodd"/>
      <path id="Vector-5" data-name="Vector" d="M.5,0,12.048,12.082v.27L.506,24.431l-.072-.066A1.934,1.934,0,0,1,0,23V1.442A2.034,2.034,0,0,1,.425.066Z" transform="translate(1188.012 4138.28)" fill-rule="evenodd" fill="url(#linear-gradient)"/>
      <path id="Vector-6" data-name="Vector" d="M3.85,8.34,0,4.311V4.029L3.85,0l.084.053L8.487,2.762a1.5,1.5,0,0,1,0,2.816L3.933,8.286Z" transform="translate(1200.049 4146.33)" fill-rule="evenodd" fill="url(#linear-gradient-2)"/>
      <path id="Vector-7" data-name="Vector" d="M1.935,12.22A1.473,1.473,0,0,1,0,12.155L11.614,0l3.933,4.116Z" transform="translate(1188.436 4150.5)" fill-rule="evenodd" fill="url(#linear-gradient-3)"/>
      <path id="Vector-8" data-name="Vector" d="M11.614,12.534,0,.392A1.459,1.459,0,0,1,1.935.326L15.547,8.418Z" transform="translate(1188.436 4137.965)" fill-rule="evenodd" fill="url(#linear-gradient-4)"/>
    </g>
    <path id="Vector-9" data-name="Vector" d="M15.547.088,1.935,8.179a1.484,1.484,0,0,1-1.863.01L0,8.123l.072-.075a1.48,1.48,0,0,0,1.863-.01L15.454,0Z" transform="translate(1188.446 4154.529)" fill-rule="evenodd" opacity="0.2"/>
    <path id="Vector-10" data-name="Vector" d="M5.61,0a1.708,1.708,0,0,1-.973,1.408L.084,4.116,0,4.029,4.649,1.267A1.746,1.746,0,0,0,5.61,0Z" transform="translate(1203.888 4150.5)" fill-rule="evenodd" opacity="0.12"/>
    <path id="Vector-11" data-name="Vector" d="M0,1.9V1.76C0,.2,1.057-.45,2.36.331l18.165,10.8a1.708,1.708,0,0,1,.973,1.408,1.782,1.782,0,0,0-.973-1.267L2.36.472C1.057-.3,0,.34,0,1.9Z" transform="translate(1188.012 4137.961)" fill="#fff" fill-rule="evenodd" opacity="0.25"/>
  </g>
</svg>
