<svg xmlns="http://www.w3.org/2000/svg" width="112.401" height="39.023" viewBox="0 0 112.401 39.023">
  <g id="Group_240259" data-name="Group 240259" transform="translate(-1153.137 -3822.733)">
    <path id="Vector_36" d="M18.55,9.751A9.387,9.387,0,0,1,9.275,19.5,9.387,9.387,0,0,1,0,9.751C0,4.1,4.164,0,9.275,0S18.55,4.1,18.55,9.751Zm-4.06,0c0-3.508-2.414-5.909-5.215-5.909S4.06,6.243,4.06,9.751c0,3.473,2.414,5.909,5.215,5.909S14.49,13.22,14.49,9.751Z" transform="translate(1182.688 3833.517)" fill="#ea4335"/>
    <path id="Vector_37" d="M18.55,9.751A9.387,9.387,0,0,1,9.275,19.5,9.387,9.387,0,0,1,0,9.751C0,4.1,4.164,0,9.275,0S18.55,4.1,18.55,9.751Zm-4.06,0c0-3.508-2.414-5.909-5.215-5.909S4.06,6.243,4.06,9.751c0,3.473,2.414,5.909,5.215,5.909S14.49,13.22,14.49,9.751Z" transform="translate(1202.697 3833.517)" fill="#fbbc05"/>
    <path id="Vector_38" d="M17.725.589V18.1c0,7.2-4.027,10.143-8.787,10.143a8.835,8.835,0,0,1-8.2-5.746L4.277,20.94A5.14,5.14,0,0,0,8.933,24.4c3.047,0,4.936-1.983,4.936-5.715v-1.4h-.142A6.158,6.158,0,0,1,8.858,19.5C4.235,19.5,0,15.251,0,9.786,0,4.282,4.235,0,8.858,0a6.263,6.263,0,0,1,4.869,2.181h.142V.594h3.856Zm-3.568,9.2c0-3.434-2.172-5.944-4.936-5.944-2.8,0-5.148,2.51-5.148,5.944,0,3.4,2.347,5.874,5.148,5.874,2.764,0,4.936-2.475,4.936-5.874Z" transform="translate(1222.697 3833.517)" fill="#4285f4"/>
    <path id="Vector_39" d="M3.96,0V28.577H0V0Z" transform="translate(1242.819 3823.845)" fill="#34a853"/>
    <path id="Vector_40" d="M13.727,12.965l3.151,2.216a9.115,9.115,0,0,1-7.7,4.322C3.923,19.5,0,15.22,0,9.751,0,3.952,3.956,0,8.721,0c4.8,0,7.145,4.027,7.912,6.2l.421,1.108-12.36,5.4a4.691,4.691,0,0,0,4.481,2.954,5.227,5.227,0,0,0,4.552-2.7Zm-9.7-3.508,8.262-3.618A3.557,3.557,0,0,0,8.858,3.772,5.235,5.235,0,0,0,4.027,9.457Z" transform="translate(1248.484 3833.513)" fill="#ea4335"/>
    <path id="Vector_41" d="M14.561,18V13.862H27.779a14.439,14.439,0,0,1,.2,2.5c0,3.1-.8,6.942-3.4,9.677a12.792,12.792,0,0,1-10.013,4.247C6.653,30.283,0,23.486,0,15.141S6.653,0,14.565,0A13.33,13.33,0,0,1,24.4,4.172L21.635,7.091a9.736,9.736,0,0,0-7.074-2.954c-5.778,0-10.3,4.911-10.3,11s4.519,11,10.3,11a9.369,9.369,0,0,0,7.249-3.029,8.8,8.8,0,0,0,2.126-5.122l-9.375,0Z" transform="translate(1153.137 3822.733)" fill="#4285f4"/>
  </g>
</svg>
