<svg xmlns="http://www.w3.org/2000/svg" width="40" height="40" viewBox="0 0 40 40">
  <g id="Group_240272" data-name="Group 240272" transform="translate(-1261 -4205)">
    <path id="Vector" d="M6.321,3.161A3.161,3.161,0,1,1,3.161,0,3.161,3.161,0,0,1,6.321,3.161Z" transform="translate(1277.84 4221.839)" fill="#fffdfd"/>
    <path id="Vector-2" data-name="Vector" d="M14.822,1.155a3.947,3.947,0,0,1,1.157,2.79v8.084a3.947,3.947,0,0,1-3.947,3.947H3.947A3.947,3.947,0,0,1,0,12.029V3.947A3.947,3.947,0,0,1,3.947,0h8.084a3.947,3.947,0,0,1,2.79,1.155ZM11.645,11.643a5.169,5.169,0,1,0-3.655,1.518,5.179,5.179,0,0,0,3.655-1.518Zm2.449-7.925a1.279,1.279,0,1,0-.9.375,1.279,1.279,0,0,0,.9-.375Z" transform="translate(1273.011 4217.013)" fill="#fffdfd"/>
    <path id="Vector-3" data-name="Vector" d="M34.142,5.858A20,20,0,1,1,20,0,20,20,0,0,1,34.142,5.858ZM30,15.958A5.966,5.966,0,0,0,24.042,10H15.958A5.966,5.966,0,0,0,10,15.958v8.084A5.966,5.966,0,0,0,15.958,30h8.084A5.963,5.963,0,0,0,30,24.042Z" transform="translate(1261 4205)" fill="#fffdfd"/>
  </g>
</svg>
