<svg xmlns="http://www.w3.org/2000/svg" width="26.919" height="22.01" viewBox="0 0 26.919 22.01">
  <g id="Group_240296" data-name="Group 240296" transform="translate(-165.939 -1693.878)">
    <path id="Vector" d="M26.919,13.406a2.185,2.185,0,0,1-1.872,2.16,2.181,2.181,0,0,1-1.6,3.207A2.181,2.181,0,0,1,21.53,22c-1.964-.01-4.577.132-6.46-.468l-2.805-.778c-1.87-.557-4.282-.3-6.222-.358H.578A.578.578,0,0,1,0,19.82V8.6a.578.578,0,0,1,.578-.578H10.934A4.032,4.032,0,0,0,13.97,6.683a8.469,8.469,0,0,0,2.119-5.6C16.053.647,16.08-.009,16.667,0a3.79,3.79,0,0,1,3.785,3.785V8.017h4.286A2.181,2.181,0,0,1,26.216,11.8a2.176,2.176,0,0,1,.7,1.6ZM8.071,19.242V9.174H1.157V19.242ZM20.952,11.8a.578.578,0,0,1,.578-.578h3.207a1.025,1.025,0,1,0,0-2.05H18.27a.578.578,0,0,1,0-1.157H19.3V3.785a2.633,2.633,0,0,0-2.051-2.565,9.625,9.625,0,0,1-2.407,6.228,5.189,5.189,0,0,1-3.9,1.726H9.228V19.242h.41a11,11,0,0,1,2.937.4l2.805.778a11.732,11.732,0,0,0,3.133.426H21.53a1.025,1.025,0,0,0,0-2.05.578.578,0,1,1,0-1.157h1.6a1.025,1.025,0,1,0,0-2.05h-1.6a.578.578,0,1,1,0-1.157h3.207a1.025,1.025,0,1,0,0-2.05H21.53a.578.578,0,0,1-.578-.578Z" transform="translate(165.939 1693.878)" fill="#004392"/>
  </g>
</svg>
