<svg xmlns="http://www.w3.org/2000/svg" width="20.806" height="20.665" viewBox="0 0 20.806 20.665">
  <g id="Group_240251" data-name="Group 240251" transform="translate(-617.951 -1483.82)">
    <path id="Vector" d="M20.357.447a1.52,1.52,0,0,1,.45,1.079V19.14a1.52,1.52,0,0,1-.45,1.079,1.541,1.541,0,0,1-1.086.447H1.536A1.541,1.541,0,0,1,.45,20.219,1.52,1.52,0,0,1,0,19.14V1.526A1.52,1.52,0,0,1,.45.447,1.541,1.541,0,0,1,1.536,0H19.271a1.541,1.541,0,0,1,1.086.447ZM6.2,7.735H3.073V17.6H6.2ZM5.329,6.242a1.764,1.764,0,0,0,.981-.968,1.748,1.748,0,0,0,.131-.689,1.775,1.775,0,0,0-.3-.99,1.8,1.8,0,0,0-3.255.634A1.778,1.778,0,0,0,3.64,6.062a1.8,1.8,0,0,0,1,.306,1.781,1.781,0,0,0,.694-.126Zm12.4,5.266c0-3.014-1.886-4.043-3.631-4.043A3.417,3.417,0,0,0,11.129,9.11h-.04V7.742H8.08v9.871h3.128V12.261a1.9,1.9,0,0,1,1.838-2.121c.878,0,1.559.491,1.559,2.081v5.392h3.127Z" transform="translate(617.951 1483.82)" fill="#0a66c2"/>
  </g>
</svg>
