<svg xmlns="http://www.w3.org/2000/svg" width="40" height="40" viewBox="0 0 40 40">
  <path id="Vector" d="M34.142,5.858A20,20,0,1,1,20,0,20,20,0,0,1,34.142,5.858ZM14.911,17.274a.676.676,0,0,0-.676-.676H11.361a.676.676,0,0,0-.676.676v12.05a.674.674,0,0,0,.676.676h2.874a.676.676,0,0,0,.676-.676ZM12.8,15.463a2.762,2.762,0,1,1,.008,0Zm17.15,8.084c0-2.534.029-7.15-4.913-7.15a4.245,4.245,0,0,0-3.982,1.876V17.221a.624.624,0,0,0-.634-.624H17.434a.621.621,0,0,0-.621.624V29.379a.618.618,0,0,0,.621.621h2.984a.621.621,0,0,0,.616-.608V22.871c.082-.876.468-2.829,2.368-2.829,2.45,0,2.205,2.839,2.205,3.684v5.653a.621.621,0,0,0,.621.621h3.092a.621.621,0,0,0,.621-.621Z" fill="#fff"/>
</svg>
