<svg xmlns="http://www.w3.org/2000/svg" width="30" height="30" viewBox="0 0 30 30">
  <g id="Group_240243" data-name="Group 240243" transform="translate(-476 -246)">
    <path id="Vector_137" d="M30,15A15,15,0,1,1,15,0,15,15,0,0,1,30,15Z" transform="translate(476 246)" fill="#007ab9"/>
    <path id="Vector_138" d="M16.725,9.8v6.184H13.139v-5.77c0-1.449-.518-2.438-1.816-2.438A1.961,1.961,0,0,0,9.484,9.085a2.454,2.454,0,0,0-.119.874v6.023H5.78S5.828,6.21,5.78,5.2H9.366V6.726c-.007.012-.017.024-.024.035h.024V6.726A3.56,3.56,0,0,1,12.6,4.945c2.359,0,4.127,1.541,4.127,4.853ZM4.033,1.863A1.87,1.87,0,0,1,2.005,3.727H1.982A1.868,1.868,0,1,1,2.029,0a1.863,1.863,0,0,1,2,1.863ZM.213,5.2H3.8V15.982H.213Z" transform="translate(483.238 252.409)" fill="#f1f2f2"/>
  </g>
</svg>
