<svg xmlns="http://www.w3.org/2000/svg" width="24.48" height="17.197" viewBox="0 0 24.48 17.197">
  <path id="Vector" d="M0,17.2v-2.6a3.225,3.225,0,0,1,.5-1.758,3.034,3.034,0,0,1,1.385-1.177,21.956,21.956,0,0,1,3.642-1.274A14.288,14.288,0,0,1,8.862,10a14.113,14.113,0,0,1,3.323.388,22.143,22.143,0,0,1,3.628,1.274,3.117,3.117,0,0,1,1.4,1.177,3.161,3.161,0,0,1,.512,1.758v2.6Zm19.385,0v-2.6a4.482,4.482,0,0,0-.886-2.866,6.486,6.486,0,0,0-2.326-1.814,27.462,27.462,0,0,1,3.6.651,12.69,12.69,0,0,1,2.742.983,4.286,4.286,0,0,1,1.44,1.3,3.036,3.036,0,0,1,.526,1.745v2.6ZM8.862,8.308A3.984,3.984,0,0,1,4.708,4.154,3.984,3.984,0,0,1,8.862,0a3.984,3.984,0,0,1,4.154,4.154A3.984,3.984,0,0,1,8.862,8.308Zm9.969-4.154a3.984,3.984,0,0,1-4.154,4.154A6.193,6.193,0,0,1,14,8.266a2.929,2.929,0,0,1-.678-.152,4.545,4.545,0,0,0,1.011-1.7,6.936,6.936,0,0,0,.346-2.257,6.446,6.446,0,0,0-.346-2.2A5.887,5.887,0,0,0,13.32.194,5.843,5.843,0,0,1,14,.055,4.667,4.667,0,0,1,14.677,0a3.984,3.984,0,0,1,4.154,4.154ZM1.662,15.536h14.4v-.942a1.584,1.584,0,0,0-.263-.858,1.448,1.448,0,0,0-.651-.582A18.7,18.7,0,0,0,11.8,11.963a13.391,13.391,0,0,0-2.935-.3,13.581,13.581,0,0,0-2.949.3,18.534,18.534,0,0,0-3.365,1.191,1.374,1.374,0,0,0-.637.582,1.647,1.647,0,0,0-.249.858Zm7.2-8.889a2.415,2.415,0,0,0,2.492-2.492A2.415,2.415,0,0,0,8.862,1.662,2.415,2.415,0,0,0,6.369,4.154,2.415,2.415,0,0,0,8.862,6.646Z" fill="#004392"/>
</svg>
