<svg xmlns="http://www.w3.org/2000/svg" width="50.018" height="50.018" viewBox="0 0 50.018 50.018">
  <g id="Group_240265" data-name="Group 240265" transform="translate(-1037 -3971)">
    <path id="Vector" d="M50.018,25.009A25.009,25.009,0,1,1,25.009,0,25.009,25.009,0,0,1,50.018,25.009Z" transform="translate(1037 3971)" fill="#545be8"/>
    <path id="Vector-2" data-name="Vector" d="M21.738,16.91a1.957,1.957,0,1,1-1.957-1.957A1.957,1.957,0,0,1,21.738,16.91Zm-10.852,0A1.957,1.957,0,1,1,8.93,14.953,1.957,1.957,0,0,1,10.887,16.91ZM7.822,8.947H20.889V10.5H7.822Zm8.4-7.078A1.869,1.869,0,1,1,14.355,0,1.87,1.87,0,0,1,16.225,1.869Zm-5.93,6.486v-1.1a2.846,2.846,0,0,1,2.836-2.836h2.438A2.846,2.846,0,0,1,18.4,7.254v1.1H15.9V7.166a.326.326,0,0,0-.029-.135l-.5-1.178a.29.29,0,0,0-.533.229l.486,1.137V8.35H13.383V7.219l.486-1.137a.29.29,0,0,0-.152-.381.285.285,0,0,0-.381.152l-.5,1.178a.272.272,0,0,0-.035.135V8.355ZM26.73,18.92A2.115,2.115,0,1,1,24.615,16.8,2.114,2.114,0,0,1,26.73,18.92Zm-10.26,0A2.115,2.115,0,1,1,14.355,16.8,2.118,2.118,0,0,1,16.471,18.92Zm-6.059.041A2.515,2.515,0,0,0,11.467,16.9a2.542,2.542,0,0,0-2.156-2.514V11.08H19.395v3.311a2.54,2.54,0,0,0-1.1,4.57,3.57,3.57,0,0,0-1.26.322,2.7,2.7,0,1,0-5.355,0,3.7,3.7,0,0,0-1.266-.322Zm8.033,5.689v1.113H10.26V24.65a2.873,2.873,0,0,1,2.865-2.865h2.461a2.864,2.864,0,0,1,2.859,2.865ZM6.211,18.92A2.115,2.115,0,1,1,4.1,16.8,2.118,2.118,0,0,1,6.211,18.92Zm1.23.047a3.963,3.963,0,0,0-.65.105,2.786,2.786,0,0,0-.164-1.084A2.639,2.639,0,0,0,7.441,18.967Zm.744,5.678v1.113H0V24.645a2.867,2.867,0,0,1,2.859-2.859H5.32a2.868,2.868,0,0,1,2.865,2.859ZM21.27,18.967a2.491,2.491,0,0,0,.814-.979,2.774,2.774,0,0,0-.164,1.078,3.418,3.418,0,0,0-.65-.1Zm-1.184,4.7H18.9A3.46,3.46,0,0,0,15.809,21.2a2.562,2.562,0,0,0,.463-.369,2.692,2.692,0,0,0,.521-.732,2.927,2.927,0,0,1,1.723-.557h2.531a2.917,2.917,0,0,1,.984.164A2.742,2.742,0,0,0,23.168,21.2a3.465,3.465,0,0,0-2.215,1.008,3.372,3.372,0,0,0-.867,1.459ZM5.543,21.205A2.688,2.688,0,0,0,6.68,19.711a3.1,3.1,0,0,1,.984-.164H10.2a2.911,2.911,0,0,1,.938.152,3.213,3.213,0,0,1,.785.4,2.729,2.729,0,0,0,.521.732,2.562,2.562,0,0,0,.463.369A3.46,3.46,0,0,0,9.82,23.672H8.631a3.453,3.453,0,0,0-3.088-2.467ZM28.711,24.65v1.113H20.52V24.65a2.873,2.873,0,0,1,2.865-2.865h2.461a2.869,2.869,0,0,1,2.865,2.865Z" transform="translate(1047.645 3981.121)" fill="#fff"/>
  </g>
</svg>
