<svg xmlns="http://www.w3.org/2000/svg" width="163.858" height="36.895" viewBox="0 0 163.858 36.895">
  <g id="Group_240290" data-name="Group 240290" transform="translate(-193 -3822.553)">
    <g id="Group_240289" data-name="Group 240289">
      <path id="Vector_44" d="M114.817,10.922V18.4a3.28,3.28,0,0,0,.485,2.036,1.863,1.863,0,0,0,1.522.585,2.6,2.6,0,0,0,.707-.127,2.442,2.442,0,0,0,.719-.331l.146-.1v3.067l-.047.029a4.045,4.045,0,0,1-1.106.37,6.945,6.945,0,0,1-1.519.178c-2.956,0-4.454-1.7-4.454-5.049V10.922h-5.305v12.8h-3.577v-12.8H99.9V7.883h2.492V5.691a6.277,6.277,0,0,1,.685-2.959A4.955,4.955,0,0,1,105.007.714,5.584,5.584,0,0,1,107.826,0a5.77,5.77,0,0,1,1.988.28l.062.024V3.5l-.132-.062a3.655,3.655,0,0,0-1.555-.373,2.012,2.012,0,0,0-1.639.706,3.289,3.289,0,0,0-.585,2.113V7.883h5.305V4.3l.066-.021L114.7,3.2l.12-.039V7.883H118.4v3.039Zm-22.91,10.1A3.506,3.506,0,0,0,94.876,19.7a6.473,6.473,0,0,0,1.008-3.926A6.06,6.06,0,0,0,94.813,11.9a3.592,3.592,0,0,0-2.935-1.31,3.65,3.65,0,0,0-3.014,1.37,6.18,6.18,0,0,0-1.094,3.91,5.942,5.942,0,0,0,1.094,3.809,3.706,3.706,0,0,0,3.043,1.348ZM92.066,7.5a7.1,7.1,0,0,1,5.5,2.177,8.577,8.577,0,0,1,1.982,5.973A8.784,8.784,0,0,1,97.436,21.8,7.421,7.421,0,0,1,91.7,24.108a7.27,7.27,0,0,1-5.535-2.191,8.336,8.336,0,0,1-2.062-5.929,8.809,8.809,0,0,1,2.113-6.211A7.621,7.621,0,0,1,92.066,7.5Zm-13.727,0a9.32,9.32,0,0,1,1.762.192,7.493,7.493,0,0,1,1.607.473l.056.025v3.445l-.146-.105a5.691,5.691,0,0,0-1.583-.774,5.935,5.935,0,0,0-1.812-.294,2.35,2.35,0,0,0-1.522.453,1.385,1.385,0,0,0-.543,1.129,1.679,1.679,0,0,0,.428,1.22,7.557,7.557,0,0,0,2.121,1.163,7.487,7.487,0,0,1,2.978,2,4.284,4.284,0,0,1,.876,2.722,4.487,4.487,0,0,1-1.629,3.6,6.62,6.62,0,0,1-4.375,1.358,9.668,9.668,0,0,1-2.025-.247,8.53,8.53,0,0,1-1.9-.618l-.055-.027V19.585l.149.112a7.209,7.209,0,0,0,2,1.071,6.059,6.059,0,0,0,1.956.377c1.555,0,2.311-.518,2.311-1.582a1.613,1.613,0,0,0-.221-.9,2.551,2.551,0,0,0-.8-.689,15.834,15.834,0,0,0-1.808-.888A9.187,9.187,0,0,1,74,15.8a3.93,3.93,0,0,1-1.069-1.473,5.154,5.154,0,0,1-.348-1.965A4.4,4.4,0,0,1,74.2,8.852,6.242,6.242,0,0,1,78.339,7.5ZM63.256,21.023A3.505,3.505,0,0,0,66.225,19.7a6.472,6.472,0,0,0,1.008-3.926A6.059,6.059,0,0,0,66.162,11.9a3.592,3.592,0,0,0-2.935-1.31,3.648,3.648,0,0,0-3.014,1.37,6.179,6.179,0,0,0-1.094,3.91,5.94,5.94,0,0,0,1.093,3.809A3.705,3.705,0,0,0,63.256,21.023ZM63.415,7.5a7.1,7.1,0,0,1,5.5,2.177A8.576,8.576,0,0,1,70.9,15.652,8.785,8.785,0,0,1,68.785,21.8a7.422,7.422,0,0,1-5.732,2.307,7.27,7.27,0,0,1-5.535-2.191,8.335,8.335,0,0,1-2.063-5.929,8.809,8.809,0,0,1,2.113-6.211A7.619,7.619,0,0,1,63.415,7.5ZM50.063,10.627A5.067,5.067,0,0,1,51.422,8.5a3.828,3.828,0,0,1,3.747-.672l.057.026v3.757l-.149-.114a2.613,2.613,0,0,0-.824-.351,3.95,3.95,0,0,0-1.062-.165,2.665,2.665,0,0,0-2.285,1.273,5.877,5.877,0,0,0-.881,3.365v8.1H46.492V7.883h3.533v2.744ZM40.164,7.5a9.278,9.278,0,0,1,1.975.224,5.63,5.63,0,0,1,1.635.583l.048.028v3.6l-.148-.114a5.489,5.489,0,0,0-3.364-1.234A4.22,4.22,0,0,0,37,12.029,5.672,5.672,0,0,0,35.724,15.9a5.469,5.469,0,0,0,1.22,3.768,4.235,4.235,0,0,0,3.307,1.36,4.986,4.986,0,0,0,1.693-.346,6.528,6.528,0,0,0,1.729-.949l.149-.114v3.414l-.046.028a8.107,8.107,0,0,1-4.262,1.052,7.547,7.547,0,0,1-3.863-.99A6.847,6.847,0,0,1,33.006,20.3a8.769,8.769,0,0,1-.946-4.081,10.233,10.233,0,0,1,.973-4.553,7.177,7.177,0,0,1,2.834-3.073,8.362,8.362,0,0,1,4.3-1.089Zm-10.538.382V23.726H26.093V7.883h3.533Zm-.194-6.11a2.151,2.151,0,0,1,.615,1.537,2.039,2.039,0,0,1-.632,1.524,2.117,2.117,0,0,1-1.519.606,2.091,2.091,0,0,1-1.512-.607,2.048,2.048,0,0,1-.624-1.524,2.109,2.109,0,0,1,.631-1.554,2.149,2.149,0,0,1,3.042.017ZM19.079,6.715h-.116l-6.4,17.011H10.006L3.505,6.713H3.389V23.726H0V1.619H5.194l6.156,16.42,6.344-16.42h4.991V23.726H19.079V6.715Z" transform="translate(238.462 3828.321)" fill="#706d6e"/>
    </g>
    <g id="Group_240255" data-name="Group 240255">
      <path id="Vector_47" d="M16.622,17.531H0V0H16.622Z" transform="translate(193 3841.917)" fill="#00adef"/>
      <g id="Group_240254" data-name="Group 240254">
        <path id="Vector_45" d="M16.622,17.531H0V0H16.622Z" transform="translate(193 3822.553)" fill="#f1511b"/>
        <path id="Vector_46" d="M16.622,17.531H0V0H16.622Z" transform="translate(211.354 3822.553)" fill="#80cc28"/>
        <path id="Vector_48" d="M16.622,17.531H0V0H16.622Z" transform="translate(211.354 3841.917)" fill="#fbbc09"/>
      </g>
    </g>
  </g>
</svg>
