<svg xmlns="http://www.w3.org/2000/svg" width="40" height="40" viewBox="0 0 40 40">
  <g id="Group_240279" data-name="Group 240279" transform="translate(-52 -468)">
    <path id="mask" d="M0,20A20,20,0,1,1,20,40,20,20,0,0,1,0,20Z" transform="translate(52 468)" fill="rgba(0,0,0,0.26)" fill-rule="evenodd"/>
    <g id="Group_240066" data-name="Group 240066">
      <path id="Vector" d="M4.394,2.2A2.2,2.2,0,1,1,2.2,0,2.2,2.2,0,0,1,4.394,2.2Z" transform="translate(78.092 486.304)" fill="#fff"/>
      <path id="Vector-2" data-name="Vector" d="M4.394,2.2A2.2,2.2,0,1,1,2.2,0,2.2,2.2,0,0,1,4.394,2.2Z" transform="translate(60.514 486.304)" fill="#fff"/>
      <path id="Vector-3" data-name="Vector" d="M4.394,2.2A2.2,2.2,0,1,1,2.2,0,2.2,2.2,0,0,1,4.394,2.2Z" transform="translate(69.303 495.092)" fill="#fff"/>
      <path id="Vector-4" data-name="Vector" d="M4.394,2.2A2.2,2.2,0,1,1,2.2,0,2.2,2.2,0,0,1,4.394,2.2Z" transform="translate(69.303 477.515)" fill="#fff"/>
      <path id="Vector-5" data-name="Vector" d="M6.592,7.374c2.649,0,4.118-3.344,4.754-5.321.248-.868.39-1.48.395-1.5a.732.732,0,0,1,1.428.321c-.149.739-.4,1.537-.443,1.686A15.777,15.777,0,0,1,8.7,9.356L6.592,11.465,4.483,9.356A15.778,15.778,0,0,1,.458,2.563C.5,2.711.161,1.606.014.877A.732.732,0,0,1,1.443.556c0,.017.147.631.4,1.5.637,1.976,2.1,5.316,4.753,5.316Z" transform="translate(64.908 476)" fill="#fff"/>
      <path id="Vector-6" data-name="Vector" d="M2.109,4.484A15.943,15.943,0,0,1,8.951.459C8.8.5,9.859.163,10.588.016a.732.732,0,0,1,.321,1.428c-.017,0-.582.147-1.453.4-1.976.637-5.365,2.1-5.365,4.753s3.393,4.118,5.369,4.754c.868.248,1.431.39,1.448.395a.732.732,0,0,1-.321,1.428c-.739-.149-1.537-.4-1.686-.444A15.777,15.777,0,0,1,2.109,8.7L0,6.593Z" transform="translate(72.535 481.907)" fill="#fff"/>
      <path id="Vector-7" data-name="Vector" d="M.555,11.742c.017,0,.631-.147,1.5-.4,1.976-.637,5.316-2.1,5.316-4.753S4.028,2.475,2.052,1.839c-.868-.248-1.48-.39-1.5-.395A.732.732,0,0,1,.876.016c.739.149,1.537.4,1.686.443A15.778,15.778,0,0,1,9.355,4.484l2.109,2.109L9.355,8.7a15.777,15.777,0,0,1-6.793,4.025c.148-.042-.957.3-1.686.444a.732.732,0,0,1-.321-1.428Z" transform="translate(59 481.907)" fill="#fff"/>
      <path id="Vector-8" data-name="Vector" d="M6.592,4.091c-2.649,0-4.118,3.344-4.754,5.321-.248.868-.39,1.48-.395,1.5a.732.732,0,0,1-1.428-.321C.032,10.5.455,8.913.458,8.9A15.777,15.777,0,0,1,4.483,2.109L6.592,0,8.7,2.109A15.777,15.777,0,0,1,12.725,8.9c0,.011.426,1.6.443,1.686a.732.732,0,0,1-1.428.321c0-.017-.147-.631-.4-1.5-.637-1.976-2.1-5.316-4.753-5.316Z" transform="translate(64.908 489.536)" fill="#fff"/>
    </g>
  </g>
</svg>
