<svg id="language" xmlns="http://www.w3.org/2000/svg" width="24" height="24" viewBox="0 0 24 24">
  <rect id="language-2" data-name="language" width="24" height="24" fill="none"/>
  <path id="Vector" d="M20,10A10,10,0,1,1,9.99,0,10.006,10.006,0,0,1,20,10ZM12.59,2.44A15.649,15.649,0,0,1,13.97,6h2.95A8.03,8.03,0,0,0,12.59,2.44ZM8.09,6h3.82A14.087,14.087,0,0,0,10,2.04,14.087,14.087,0,0,0,8.09,6ZM5.64,12a16.515,16.515,0,0,1-.14-2,16.515,16.515,0,0,1,.14-2H2.26A8.242,8.242,0,0,0,2,10a8.242,8.242,0,0,0,.26,2Zm1.77,5.56A15.649,15.649,0,0,1,6.03,14H3.08A7.987,7.987,0,0,0,7.41,17.56Zm0-15.12A7.987,7.987,0,0,0,3.08,6H6.03A15.649,15.649,0,0,1,7.41,2.44ZM11.91,14H8.09A14.087,14.087,0,0,0,10,17.96,14.087,14.087,0,0,0,11.91,14Zm.59-4a14.585,14.585,0,0,0-.16-2H7.66a14.585,14.585,0,0,0-.16,2,14.713,14.713,0,0,0,.16,2h4.68A14.713,14.713,0,0,0,12.5,10Zm4.42,4H13.97a15.649,15.649,0,0,1-1.38,3.56A8.03,8.03,0,0,0,16.92,14Zm.82-2A8.242,8.242,0,0,0,18,10a8.242,8.242,0,0,0-.26-2H14.36a16.515,16.515,0,0,1,.14,2,16.515,16.515,0,0,1-.14,2Z" transform="translate(2 2)" fill="#2f9fd6"/>
</svg>
