<svg id="popular" xmlns="http://www.w3.org/2000/svg" width="24.948" height="24.947" viewBox="0 0 24.948 24.947">
  <path id="Path_3272" data-name="Path 3272" d="M12.474,14.5a3.183,3.183,0,0,1,3.179,3.179v.915a6.912,6.912,0,0,0,1.072-.692v-.223a4.251,4.251,0,0,0-8.5,0V17.9a6.911,6.911,0,0,0,1.072.692v-.915A3.183,3.183,0,0,1,12.474,14.5Z"/>
  <path id="Path_3273" data-name="Path 3273" d="M16.406,19.4a.525.525,0,0,0,.1-.057Z"/>
  <path id="Path_3274" data-name="Path 3274" d="M8.443,19.342a.532.532,0,0,0,.1.057Z"/>
  <path id="Path_3275" data-name="Path 3275" d="M12.474,13.01a2.765,2.765,0,1,1,2.765-2.765A2.768,2.768,0,0,1,12.474,13.01Zm0-4.458a1.693,1.693,0,1,0,1.693,1.693A1.7,1.7,0,0,0,12.474,8.552Z"/>
  <path id="Path_3276" data-name="Path 3276" d="M7.235,6.477,5.061,4.3a2.768,2.768,0,1,0-.758.758L6.477,7.235A8.041,8.041,0,0,1,7.235,6.477ZM2.765,4.458A1.693,1.693,0,1,1,4.458,2.765,1.695,1.695,0,0,1,2.765,4.458Z"/>
  <path id="Path_3277" data-name="Path 3277" d="M22.182,19.417a2.749,2.749,0,0,0-1.538.469L18.47,17.712a8.022,8.022,0,0,1-.758.758l2.174,2.174a2.764,2.764,0,1,0,2.3-1.227Zm0,4.458a1.693,1.693,0,1,1,1.693-1.693A1.695,1.695,0,0,1,22.182,23.875Z"/>
  <path id="Path_3278" data-name="Path 3278" d="M6.477,17.712,4.3,19.886a2.768,2.768,0,1,0,.758.758L7.235,18.47A8.031,8.031,0,0,1,6.477,17.712ZM2.765,23.875a1.693,1.693,0,1,1,1.693-1.693A1.695,1.695,0,0,1,2.765,23.875Z"/>
  <path id="Path_3279" data-name="Path 3279" d="M18.47,7.235l2.174-2.174a2.768,2.768,0,1,0-.758-.758L17.712,6.477A8.037,8.037,0,0,1,18.47,7.235Zm3.712-6.163a1.693,1.693,0,1,1-1.693,1.693A1.695,1.695,0,0,1,22.183,1.072Z"/>
  <path id="Path_3280" data-name="Path 3280" d="M12.474,20.44a7.966,7.966,0,1,1,7.966-7.966A7.975,7.975,0,0,1,12.474,20.44Zm0-14.86a6.894,6.894,0,1,0,6.894,6.894A6.9,6.9,0,0,0,12.474,5.58Z" fill="#3cc"/>
</svg>
