<svg xmlns="http://www.w3.org/2000/svg" width="42" height="38" viewBox="0 0 42 38">
  <g id="Group_240285" data-name="Group 240285" transform="translate(-983 -302)">
    <rect id="learning_3" data-name="learning 3" width="42" height="38" transform="translate(983 302)" fill="none"/>
    <path id="Vector" d="M0,0H1.313V1.188H0Z" transform="translate(986.281 304.969)" fill="#004392"/>
    <path id="Vector-2" data-name="Vector" d="M0,0H1.313V1.188H0Z" transform="translate(988.906 304.969)" fill="#004392"/>
    <path id="Vector-3" data-name="Vector" d="M0,0H1.313V1.188H0Z" transform="translate(991.531 304.969)" fill="#004392"/>
    <g id="Group_240248" data-name="Group 240248">
      <g id="Group_240249" data-name="Group 240249">
        <path id="Vector-4" data-name="Vector" d="M38.511,3.5c-.047.021-.543.243-1.253.493a3.888,3.888,0,0,1,.959,2.539,4.066,4.066,0,0,1-2.025,3.444,5.968,5.968,0,0,1,3.993,5.462V19a2.512,2.512,0,0,1-2.625,2.375v7.532a4.151,4.151,0,0,1,2.625,3.75,4.4,4.4,0,0,1-4.594,4.156H9.187L0,32.656,9.187,28.5h20.5V21.375A2.512,2.512,0,0,1,27.061,19V15.438a5.968,5.968,0,0,1,3.993-5.462A4.066,4.066,0,0,1,29.03,6.531a3.887,3.887,0,0,1,.959-2.539c-.71-.251-1.206-.471-1.253-.493l-.363-.164V1.187H27.061V0H40.186V1.187H38.874V3.336ZM4.749,31.836l-1.814.821,1.814.821Zm3.937-1.781L6.061,31.242v2.829l2.625,1.188Zm22.079-18.6L31.876,13.8l.854-.772-1.652-1.744C30.97,11.341,30.867,11.4,30.765,11.459Zm2.859.691,1.251-1.321a5.583,5.583,0,0,0-2.5,0Zm-5.25,21.1H10v2.375H28.374Zm0-3.562H10v2.375H28.374Zm2.625,0H29.686v5.938H31Zm4.594,0H32.311v5.938h3.281a3.14,3.14,0,0,0,3.281-2.969A3.14,3.14,0,0,0,35.592,29.688ZM37.525,12.27l-1.711,3.614L33.624,13.9l-2.19,1.981L29.722,12.27a4.484,4.484,0,0,0-1.349,3.167V19a1.256,1.256,0,0,0,1.313,1.188v-4.75H31V28.5h1.969V19H34.28v9.5h1.313a5.085,5.085,0,0,1,.656.048V15.438h1.313v4.75A1.256,1.256,0,0,0,38.874,19V15.438A4.484,4.484,0,0,0,37.525,12.27Zm-1.355-.984-1.652,1.744.854.772,1.111-2.345C36.38,11.4,36.277,11.341,36.17,11.287ZM36.9,6.531a2.821,2.821,0,0,0-.992-2.124,9.377,9.377,0,0,1-2.289.343,9.377,9.377,0,0,1-2.289-.343,2.821,2.821,0,0,0-.992,2.124,3.3,3.3,0,0,0,6.563,0Zm.656-5.344H29.686v1.4a12.2,12.2,0,0,0,3.938.972,12.172,12.172,0,0,0,3.938-.972Z" transform="translate(984.157 302.594)" fill="#004392"/>
        <path id="Vector-5" data-name="Vector" d="M7.875,20.188H0V0H26.25V20.188H23.625v2.969a1.884,1.884,0,0,1-1.969,1.781H19.688v2.742l-6.061-2.742H9.844a1.884,1.884,0,0,1-1.969-1.781Zm14.438-1.781a.628.628,0,0,0-.656-.594H9.844a.628.628,0,0,0-.656.594v4.75a.628.628,0,0,0,.656.594h4.092l4.439,2.008V23.75h3.281a.628.628,0,0,0,.656-.594ZM9.844,16.625H10.5V10.688H9.188v6.047A2.129,2.129,0,0,1,9.844,16.625Zm5.906,0V13.063H14.438v3.563Zm5.25,0V8.313H19.688v8.313ZM1.313,4.75H24.938V1.188H1.313ZM7.875,19V9.5h3.938v7.125h1.313v-4.75h3.938v4.75h1.313v-9.5h3.938v9.609a1.8,1.8,0,0,1,1.313,1.672V19h1.313V5.938H1.313V19Z" transform="translate(983.656 302.594)" fill="#004392"/>
      </g>
    </g>
    <path id="Vector-6" data-name="Vector" d="M0,0H10.5V1.188H0Z" transform="translate(994.156 321.594)" fill="#004392"/>
    <path id="Vector-7" data-name="Vector" d="M0,0H7.875V1.188H0Z" transform="translate(994.156 323.969)" fill="#004392"/>
    <path id="Vector-8" data-name="Vector" d="M0,0H1.313V1.188H0Z" transform="translate(1003.344 323.969)" fill="#004392"/>
    <path id="Vector-9" data-name="Vector" d="M0,0H3.938V4.75H0ZM1.313,3.563H2.625V1.188H1.313Z" transform="translate(986.281 315.656)" fill="#004392"/>
  </g>
</svg>
