<svg xmlns="http://www.w3.org/2000/svg" xmlns:xlink="http://www.w3.org/1999/xlink" width="24.947" height="24.947" viewBox="0 0 24.947 24.947">
  <defs>
    <clipPath id="clip-path">
      <rect id="Rectangle_2490" data-name="Rectangle 2490" width="24.947" height="24.947" fill="#fff"/>
    </clipPath>
  </defs>
  <g id="recomended" clip-path="url(#clip-path)">
    <path id="Path_3281" data-name="Path 3281" d="M22.826,0h-5.6a2.123,2.123,0,0,0-2.121,2.121V8.205a5.051,5.051,0,0,1,1.638,1.634h6.08a2.123,2.123,0,0,0,2.121-2.121v-5.6A2.124,2.124,0,0,0,22.826,0Zm1.049,7.718a1.05,1.05,0,0,1-1.049,1.049H16.18V2.121a1.05,1.05,0,0,1,1.049-1.049h5.6a1.05,1.05,0,0,1,1.049,1.049Z" fill="#79caca"/>
    <path id="Path_3282" data-name="Path 3282" d="M8.222,15.108h-6.1A2.123,2.123,0,0,0,0,17.229v5.6a2.123,2.123,0,0,0,2.121,2.121h5.6a2.123,2.123,0,0,0,2.121-2.121v-6.1A5.051,5.051,0,0,1,8.222,15.108Zm.545,7.718a1.05,1.05,0,0,1-1.049,1.049h-5.6a1.05,1.05,0,0,1-1.049-1.049v-5.6A1.05,1.05,0,0,1,2.121,16.18H8.767v6.646Z" fill="#79caca"/>
    <path id="Path_3283" data-name="Path 3283" d="M6.133,5.6H3.756a.536.536,0,1,0,0,1.072H6.133a.536.536,0,1,0,0-1.072Z"/>
    <path id="Path_3284" data-name="Path 3284" d="M18.814,6.669h2.378a.536.536,0,1,0,0-1.072H18.814a.536.536,0,1,0,0,1.072Z"/>
    <path id="Path_3285" data-name="Path 3285" d="M22.826,15.108h-6.08A5.01,5.01,0,0,0,9.84,8.218v-6.1A2.124,2.124,0,0,0,7.718,0h-5.6A2.123,2.123,0,0,0,0,2.121v5.6A2.123,2.123,0,0,0,2.121,9.839h6.1a5.01,5.01,0,0,0,6.886,6.9v6.084a2.123,2.123,0,0,0,2.121,2.121h5.6a2.123,2.123,0,0,0,2.121-2.121v-5.6A2.123,2.123,0,0,0,22.826,15.108ZM1.072,7.718v-5.6A1.05,1.05,0,0,1,2.121,1.072h5.6A1.05,1.05,0,0,1,8.767,2.121V8.767H2.121A1.05,1.05,0,0,1,1.072,7.718Zm7.472,4.755a3.94,3.94,0,1,1,3.94,3.94A3.944,3.944,0,0,1,8.544,12.474ZM23.875,22.826a1.05,1.05,0,0,1-1.049,1.049h-5.6a1.05,1.05,0,0,1-1.049-1.049V16.18h6.646a1.05,1.05,0,0,1,1.049,1.049Z"/>
    <path id="Path_3286" data-name="Path 3286" d="M6.133,20.656H3.756a.536.536,0,1,0,0,1.072H6.133a.536.536,0,1,0,0-1.072Z"/>
    <path id="Path_3287" data-name="Path 3287" d="M21.192,20.656H18.814a.536.536,0,1,0,0,1.072h2.378a.536.536,0,1,0,0-1.072Z"/>
    <path id="Path_3288" data-name="Path 3288" d="M13.266,13.127H11.681a.536.536,0,0,0,0,1.072h1.585a.536.536,0,1,0,0-1.072Z"/>
    <path id="Path_3289" data-name="Path 3289" d="M4.945,4.292a.536.536,0,1,0-.536-.536A.536.536,0,0,0,4.945,4.292Z"/>
    <path id="Path_3290" data-name="Path 3290" d="M20,4.292a.536.536,0,1,0-.536-.536A.536.536,0,0,0,20,4.292Z"/>
    <path id="Path_3291" data-name="Path 3291" d="M20,19.35a.536.536,0,1,0-.536-.536A.536.536,0,0,0,20,19.35Z"/>
    <path id="Path_3292" data-name="Path 3292" d="M4.945,19.35a.536.536,0,1,0-.536-.536A.536.536,0,0,0,4.945,19.35Z"/>
    <path id="Path_3293" data-name="Path 3293" d="M12.474,11.821a.536.536,0,1,0-.536-.536A.536.536,0,0,0,12.474,11.821Z"/>
  </g>
</svg>
