<svg xmlns="http://www.w3.org/2000/svg" width="120.713" height="31.64" viewBox="0 0 120.713 31.64">
  <g id="Group_240292" data-name="Group 240292" transform="translate(-932 -3825.396)">
    <path id="Vector_49" d="M0,24.437l1.468-3.619a9.5,9.5,0,0,0,5.8,1.92c1.538,0,2.516-.627,2.516-1.587C9.751,18.492.525,20.56.455,13.875c-.035-3.4,2.831-6.02,6.885-6.02a10.177,10.177,0,0,1,6.535,2.069L12.5,13.62A9.944,9.944,0,0,0,7.13,11.807c-1.258,0-2.1.627-2.1,1.441.035,2.622,9.332,1.181,9.437,7.571,0,3.472-2.8,5.909-6.781,5.909A12.668,12.668,0,0,1,0,24.437ZM62.54,21.9a8.862,8.862,0,0,1-7.793,4.83,9.193,9.193,0,0,1-8.93-9.436,9.193,9.193,0,0,1,8.93-9.436,8.862,8.862,0,0,1,7.793,4.83l-4.082,2.389A4.389,4.389,0,0,0,56.9,13.4a4.092,4.092,0,0,0-2.15-.614,4.389,4.389,0,0,0-4.264,4.506A4.389,4.389,0,0,0,54.747,21.8a4.092,4.092,0,0,0,2.15-.614,4.389,4.389,0,0,0,1.562-1.675ZM17.119,0h5.1V26.358h-5.1Zm53.1,0V15.5l5.767-7.278h6.242L75.1,16.977l7.689,9.381H76.266l-6.046-7.9v7.9h-5.1V0ZM43.044,8.224V26.358h-5.1V24.216a5.906,5.906,0,0,1-5.067,2.512c-4.474,0-8-4.211-8-9.455s3.53-9.418,8-9.418a5.906,5.906,0,0,1,5.067,2.512V8.224Zm-5.1,6.888a4.627,4.627,0,0,0-3.984-2.326,4.39,4.39,0,0,0-4.264,4.506A4.389,4.389,0,0,0,33.957,21.8a4.641,4.641,0,0,0,3.984-2.252Z" transform="translate(969.925 3825.978)"/>
    <g id="Group_240258" data-name="Group 240258">
      <path id="Vector_50" d="M10.978,0A2.921,2.921,0,0,1,13.1.928a3.251,3.251,0,0,1,.876,2.236V6.328H10.978a2.863,2.863,0,0,1-1.147-.242A2.992,2.992,0,0,1,8.86,5.4a3.178,3.178,0,0,1-.649-1.026,3.311,3.311,0,0,1-.227-1.21A3.082,3.082,0,0,1,10.978,0Zm2.994,11.6a3.083,3.083,0,0,1-2.994,3.164H2.994A3.082,3.082,0,0,1,0,11.6,3.083,3.083,0,0,1,2.994,8.437h7.984A3.083,3.083,0,0,1,13.972,11.6Z" transform="translate(932 3825.396)" fill="#36c5f0"/>
      <path id="Vector_51" d="M13.972,11.6a3.251,3.251,0,0,1-.876,2.236,2.921,2.921,0,0,1-2.118.928H7.984V11.6a3.083,3.083,0,0,1,2.994-3.164A3.083,3.083,0,0,1,13.972,11.6Zm-7.984,0a3.251,3.251,0,0,1-.876,2.236,2.921,2.921,0,0,1-2.118.928A3.083,3.083,0,0,1,0,11.6V3.164A3.082,3.082,0,0,1,2.994,0,2.921,2.921,0,0,1,5.112.928a3.251,3.251,0,0,1,.876,2.236V11.6" transform="translate(947.969 3825.396)" fill="#2eb67d"/>
      <path id="Vector_52" d="M0,11.6V8.438H2.994a2.921,2.921,0,0,1,2.118.928,3.292,3.292,0,0,1,0,4.472,2.921,2.921,0,0,1-2.118.928A3.082,3.082,0,0,1,0,11.6ZM2.994,6.328a2.863,2.863,0,0,1-1.147-.242A2.992,2.992,0,0,1,.876,5.4,3.178,3.178,0,0,1,.227,4.374,3.311,3.311,0,0,1,0,3.164,3.082,3.082,0,0,1,2.994,0h7.984A2.921,2.921,0,0,1,13.1.928a3.251,3.251,0,0,1,.876,2.236,3.083,3.083,0,0,1-2.994,3.164H2.994" transform="translate(947.969 3842.27)" fill="#ecb22e"/>
      <path id="Vector_53" d="M0,3.164A3.082,3.082,0,0,1,2.994,0H5.988V3.164A3.251,3.251,0,0,1,5.112,5.4a2.921,2.921,0,0,1-2.118.928,2.863,2.863,0,0,1-1.147-.242A2.992,2.992,0,0,1,.876,5.4,3.178,3.178,0,0,1,.227,4.374,3.311,3.311,0,0,1,0,3.164ZM10.978,0a2.863,2.863,0,0,1,1.147.242A2.992,2.992,0,0,1,13.1.928a3.178,3.178,0,0,1,.649,1.026,3.311,3.311,0,0,1,.227,1.21V11.6a3.251,3.251,0,0,1-.876,2.236,2.921,2.921,0,0,1-2.118.928A3.083,3.083,0,0,1,7.984,11.6V3.164A3.082,3.082,0,0,1,10.978,0Z" transform="translate(932 3842.27)" fill="#e01e5a"/>
    </g>
  </g>
</svg>
