<svg xmlns="http://www.w3.org/2000/svg" width="29.941" height="31.64" viewBox="0 0 29.941 31.64">
  <g id="Group_240258" data-name="Group 240258" transform="translate(-932 -3825.396)">
    <path id="Vector_50" d="M10.978,0A2.921,2.921,0,0,1,13.1.928a3.251,3.251,0,0,1,.876,2.236V6.328H10.978a2.863,2.863,0,0,1-1.147-.242A2.992,2.992,0,0,1,8.86,5.4a3.178,3.178,0,0,1-.649-1.026,3.311,3.311,0,0,1-.227-1.21A3.082,3.082,0,0,1,10.978,0Zm2.994,11.6a3.083,3.083,0,0,1-2.994,3.164H2.994A3.082,3.082,0,0,1,0,11.6,3.083,3.083,0,0,1,2.994,8.437h7.984A3.083,3.083,0,0,1,13.972,11.6Z" transform="translate(932 3825.396)" fill="#36c5f0"/>
    <path id="Vector_51" d="M13.972,11.6a3.251,3.251,0,0,1-.876,2.236,2.921,2.921,0,0,1-2.118.928H7.984V11.6a3.083,3.083,0,0,1,2.994-3.164A3.083,3.083,0,0,1,13.972,11.6Zm-7.984,0a3.251,3.251,0,0,1-.876,2.236,2.921,2.921,0,0,1-2.118.928A3.083,3.083,0,0,1,0,11.6V3.164A3.082,3.082,0,0,1,2.994,0,2.921,2.921,0,0,1,5.112.928a3.251,3.251,0,0,1,.876,2.236V11.6" transform="translate(947.969 3825.396)" fill="#2eb67d"/>
    <path id="Vector_52" d="M0,11.6V8.438H2.994a2.921,2.921,0,0,1,2.118.928,3.292,3.292,0,0,1,0,4.472,2.921,2.921,0,0,1-2.118.928A3.082,3.082,0,0,1,0,11.6ZM2.994,6.328a2.863,2.863,0,0,1-1.147-.242A2.992,2.992,0,0,1,.876,5.4,3.178,3.178,0,0,1,.227,4.374,3.311,3.311,0,0,1,0,3.164,3.082,3.082,0,0,1,2.994,0h7.984A2.921,2.921,0,0,1,13.1.928a3.251,3.251,0,0,1,.876,2.236,3.083,3.083,0,0,1-2.994,3.164H2.994" transform="translate(947.969 3842.27)" fill="#ecb22e"/>
    <path id="Vector_53" d="M0,3.164A3.082,3.082,0,0,1,2.994,0H5.988V3.164A3.251,3.251,0,0,1,5.112,5.4a2.921,2.921,0,0,1-2.118.928,2.863,2.863,0,0,1-1.147-.242A2.992,2.992,0,0,1,.876,5.4,3.178,3.178,0,0,1,.227,4.374,3.311,3.311,0,0,1,0,3.164ZM10.978,0a2.863,2.863,0,0,1,1.147.242A2.992,2.992,0,0,1,13.1.928a3.178,3.178,0,0,1,.649,1.026,3.311,3.311,0,0,1,.227,1.21V11.6a3.251,3.251,0,0,1-.876,2.236,2.921,2.921,0,0,1-2.118.928A3.083,3.083,0,0,1,7.984,11.6V3.164A3.082,3.082,0,0,1,10.978,0Z" transform="translate(932 3842.27)" fill="#e01e5a"/>
  </g>
</svg>
