<svg xmlns="http://www.w3.org/2000/svg" width="50.018" height="50.018" viewBox="0 0 50.018 50.018">
  <g id="Group_240262" data-name="Group 240262" transform="translate(-490 -3971)">
    <path id="Vector" d="M50.018,25.009A25.009,25.009,0,1,1,25.009,0,25.009,25.009,0,0,1,50.018,25.009Z" transform="translate(490 3971)" fill="#3cc"/>
    <path id="Vector-2" data-name="Vector" d="M.554,3.246,9.29.052a.849.849,0,0,1,.583,0L18.61,3.246a.852.852,0,0,1,0,1.6L9.871,8.036a.85.85,0,0,1-.584,0L.554,4.842a.852.852,0,0,1,0-1.6Z" transform="translate(504.918 3979)" fill="#fff"/>
    <path id="Vector-3" data-name="Vector" d="M2.863,5.764A2.882,2.882,0,1,1,5.745,2.882,2.882,2.882,0,0,1,2.863,5.764Z" transform="translate(502.9 3994.652)" fill="#fff"/>
    <path id="Vector-4" data-name="Vector" d="M2.863,5.764A2.882,2.882,0,1,1,5.745,2.882,2.882,2.882,0,0,1,2.863,5.764Z" transform="translate(520.373 3994.652)" fill="#fff"/>
    <path id="Vector-5" data-name="Vector" d="M2.882,0A2.882,2.882,0,1,1,0,2.882,2.882,2.882,0,0,1,2.882,0Z" transform="translate(511.618 3994.652)" fill="#fff"/>
    <path id="Vector-6" data-name="Vector" d="M8.858,5.764v.97a.85.85,0,0,1-.85.85H1.815V5.764A7.406,7.406,0,0,0,0,.9,5.761,5.761,0,0,1,8.858,5.764Z" transform="translate(520.142 4000.416)" fill="#fff"/>
    <path id="Vector-7" data-name="Vector" d="M11.613,5.764v1.82H0V5.764a5.806,5.806,0,0,1,11.613,0Z" transform="translate(508.646 4000.416)" fill="#fff"/>
    <path id="Vector-8" data-name="Vector" d="M8.8.864a7.407,7.407,0,0,0-1.849,4.9v1.82H.85A.85.85,0,0,1,0,6.734v-.97A5.761,5.761,0,0,1,8.8.864Z" transform="translate(500 4000.416)" fill="#fff"/>
    <path id="Vector-9" data-name="Vector" d="M10.241,3.837,5.688,5.5a.85.85,0,0,1-.583,0L.558,3.838A.85.85,0,0,1,0,3.04V0L4.521,1.654a2.55,2.55,0,0,0,1.751,0L10.8,0V3.039a.85.85,0,0,1-.558.8Z" transform="translate(509.101 3986.977)" fill="#fff"/>
  </g>
</svg>
