<svg xmlns="http://www.w3.org/2000/svg" width="165.063" height="40.265" viewBox="0 0 165.063 40.265">
  <g id="Group_240291" data-name="Group 240291" transform="translate(-457 -3821.521)">
    <path id="Vector_54" d="M9.025,17.659a1.664,1.664,0,0,1-1.069,1.628,7.324,7.324,0,0,1-3.206.626C1.425,19.913,0,17.659,0,14.528V3.632A1.878,1.878,0,0,1,1.781,1.753,1.8,1.8,0,0,1,3.563,3.632V5.511H6.887A1.566,1.566,0,0,1,8.55,7.139,1.633,1.633,0,0,1,6.888,8.767H3.563V14.4c0,1.252.475,2,1.663,2a6.671,6.671,0,0,0,1.662-.25,1.662,1.662,0,0,1,2.138,1.5Zm11.4-10.646a1.744,1.744,0,0,1-1.663,1.753c-.712,0-1.187-.25-2.019-.25s-1.306.5-1.306,1.753v7.765a1.878,1.878,0,0,1-1.781,1.879,1.878,1.878,0,0,1-1.781-1.879V9.518c0-2.881,1.663-4.759,4.631-4.759a10.387,10.387,0,0,1,2.256.25,2.208,2.208,0,0,1,1.663,2Zm13.894,4.133v.626a1.671,1.671,0,0,1-1.781,1.879H25.769v.376c0,1.753,1.306,2.63,2.969,2.63a6.737,6.737,0,0,0,2.731-.626,1.577,1.577,0,0,1,2.256,1.5,1.663,1.663,0,0,1-.831,1.5,7.93,7.93,0,0,1-4.156,1,5.926,5.926,0,0,1-6.175-5.886,34.442,34.442,0,0,1,0-3.507c.356-3.632,2.731-5.886,6.056-5.886,3.444,0,5.819,2.5,5.7,6.387Zm-3.206-.376a2.36,2.36,0,0,0-2.494-2.755c-1.9,0-2.731,1.252-2.731,3.131h4.988C31.112,11.147,31.112,11.021,31.112,10.771Zm17.456.376v.626a1.671,1.671,0,0,1-1.781,1.879H40.019v.376c0,1.753,1.306,2.63,2.969,2.63a6.737,6.737,0,0,0,2.731-.626,1.577,1.577,0,0,1,2.256,1.5,1.663,1.663,0,0,1-.831,1.5,7.93,7.93,0,0,1-4.156,1,5.926,5.926,0,0,1-6.175-5.886,34.442,34.442,0,0,1,0-3.507c.356-3.632,2.731-5.886,6.056-5.886,3.444,0,5.819,2.5,5.7,6.387Zm-3.206-.376a2.36,2.36,0,0,0-2.494-2.755c-1.9,0-2.731,1.252-2.731,3.131h4.987c.237,0,.237-.125.237-.376Zm61.394,4.509c0,3.006-2.375,4.759-5.463,4.759a7.047,7.047,0,0,1-4.988-1.628,1.659,1.659,0,0,1-.356-2.254,1.5,1.5,0,0,1,2.256-.376,6.024,6.024,0,0,0,3.088.877c1.425,0,2.019-.5,2.019-1.252,0-.5-.475-1-1.544-1.252-.95-.25-.831-.25-1.9-.5-2.137-.626-3.8-1.879-3.8-4.258,0-3.006,2.256-4.634,5.344-4.634a7.308,7.308,0,0,1,4.275,1.252,1.854,1.854,0,0,1,.119,2.5,1.692,1.692,0,0,1-2.256.25,5.111,5.111,0,0,0-2.256-.626c-1.306,0-1.9.5-1.9,1.127s.356,1,1.544,1.252l1.9.5c2.613.626,3.919,2,3.919,4.258Zm5.7-1.628v.376c0,1.753,1.306,2.63,2.969,2.63a6.737,6.737,0,0,0,2.731-.626,1.577,1.577,0,0,1,2.256,1.5,1.663,1.663,0,0,1-.831,1.5,7.93,7.93,0,0,1-4.156,1,5.926,5.926,0,0,1-6.175-5.886,34.442,34.442,0,0,1,0-3.507c.356-3.632,2.731-5.886,6.056-5.886,3.444,0,5.819,2.5,5.819,6.387v.626a1.671,1.671,0,0,1-1.781,1.879Zm.119-2.5h4.988c.119,0,.238-.125.238-.376a2.36,2.36,0,0,0-2.494-2.755c-1.781,0-2.731,1.252-2.731,3.131ZM78.256,10.52a21.2,21.2,0,0,1,0,3.882,6.1,6.1,0,0,1-6.412,5.636A6.214,6.214,0,0,1,65.313,14.4a22.587,22.587,0,0,1,0-4.008,6.292,6.292,0,0,1,6.531-5.636A6.115,6.115,0,0,1,78.256,10.52Zm-3.562.5a2.733,2.733,0,0,0-2.85-2.63,2.655,2.655,0,0,0-2.85,2.63v2.755a2.733,2.733,0,0,0,2.85,2.63,2.655,2.655,0,0,0,2.85-2.63,10.7,10.7,0,0,0,0-2.755ZM63.056,10.9v7.139a1.742,1.742,0,1,1-3.444,0V11.146c0-1.753-.831-2.63-2.256-2.63a3.744,3.744,0,0,0-2.731,1.127v8.391a1.782,1.782,0,0,1-1.662,1.879,1.878,1.878,0,0,1-1.781-1.879V1.879A1.782,1.782,0,0,1,52.844,0a1.708,1.708,0,0,1,1.662,1.879V5.886a4.539,4.539,0,0,1,3.206-1.127c3.325,0,5.225,2.129,5.344,6.137ZM92.625,6.763v10.27c0,.626-.119,1-.594,1.252a9.269,9.269,0,0,1-5.463,1.628c-3.681,0-5.819-2.129-5.819-6.012V6.763c0-1.127.594-2,1.662-2a1.912,1.912,0,0,1,1.781,2v7.014a2.37,2.37,0,0,0,2.494,2.63,4.6,4.6,0,0,0,2.494-.751V6.763a1.878,1.878,0,0,1,1.781-1.879,1.782,1.782,0,0,1,1.662,1.879Z" transform="translate(500.938 3831.76)" fill="#3e474f"/>
    <g id="Group_240256" data-name="Group 240256">
      <path id="Vector_55" d="M33.131,8.736a4.281,4.281,0,0,1,1.9,3.382V28.148a4.281,4.281,0,0,1-1.9,3.382L19.356,39.8a3.84,3.84,0,0,1-3.681,0L1.9,31.53A4.281,4.281,0,0,1,0,28.148V12.117A4.281,4.281,0,0,1,1.9,8.736L15.675.47a3.842,3.842,0,0,1,3.681,0l2.019,1.252c1.069.626,1.188,2.755.119,4.634-.95,1.879-1.781,3.382-1.781,3.382a7.876,7.876,0,0,1-4.75,3.632l-.475.125c-1.663.376-3.8-.125-4.631-.125a1.916,1.916,0,0,0-1.306.5,2.462,2.462,0,0,0-.475,3.256,2.175,2.175,0,0,0,3.087.5c.238-.125.356-.376.475-.5.238-.376,1.425-.5,2.494-.626.356,0,.712.376.356.877a3.822,3.822,0,0,1-.712.626,19.868,19.868,0,0,1-4.037,2.5,2.081,2.081,0,0,0-1.069.5,2.851,2.851,0,0,0-.356,3.757,2.509,2.509,0,0,0,3.563.376,3.811,3.811,0,0,0,.594-.877,4.858,4.858,0,0,1,1.306-1.879,12.785,12.785,0,0,1,1.306-1.127c.594-.376,1.187-.376,1.306.25a7.3,7.3,0,0,1-.237,2.254c-.119.376-.238.751-.475,1.628a6.4,6.4,0,0,1-.712,1.753c-.119,0-.119.125-.238.125a3,3,0,0,0-1.187,4.008,2.7,2.7,0,0,0,3.8,1.252,3,3,0,0,0,1.188-4.008c0-.125-.119-.125-.119-.25a14.49,14.49,0,0,1,.712-3.507v-.125c.594-1.753,2.138-3.507,2.969-2.63a3.2,3.2,0,0,1,.95,2.5,3.273,3.273,0,0,0,.119,1A2.466,2.466,0,0,0,26.244,27.4a2.63,2.63,0,0,0,1.781-3.256,2.458,2.458,0,0,0-.594-1.127,38.353,38.353,0,0,1-2.85-3.507l-.119-.125a5.242,5.242,0,0,1-.356-5.26l2.256-4.008c1.188-2.254,3.206-3.507,4.512-2.755s2.256,1.378,2.256,1.378Z" transform="translate(457 3821.521)" fill="#5fcf80"/>
    </g>
  </g>
</svg>
