<svg xmlns="http://www.w3.org/2000/svg" width="35.031" height="40.265" viewBox="0 0 35.031 40.265">
  <g id="Group_240256" data-name="Group 240256" transform="translate(-457 -3821.521)">
    <path id="Vector_55" d="M33.131,8.736a4.281,4.281,0,0,1,1.9,3.382V28.148a4.281,4.281,0,0,1-1.9,3.382L19.356,39.8a3.84,3.84,0,0,1-3.681,0L1.9,31.53A4.281,4.281,0,0,1,0,28.148V12.117A4.281,4.281,0,0,1,1.9,8.736L15.675.47a3.842,3.842,0,0,1,3.681,0l2.019,1.252c1.069.626,1.188,2.755.119,4.634-.95,1.879-1.781,3.382-1.781,3.382a7.876,7.876,0,0,1-4.75,3.632l-.475.125c-1.663.376-3.8-.125-4.631-.125a1.916,1.916,0,0,0-1.306.5,2.462,2.462,0,0,0-.475,3.256,2.175,2.175,0,0,0,3.087.5c.238-.125.356-.376.475-.5.238-.376,1.425-.5,2.494-.626.356,0,.712.376.356.877a3.822,3.822,0,0,1-.712.626,19.868,19.868,0,0,1-4.037,2.5,2.081,2.081,0,0,0-1.069.5,2.851,2.851,0,0,0-.356,3.757,2.509,2.509,0,0,0,3.563.376,3.811,3.811,0,0,0,.594-.877,4.858,4.858,0,0,1,1.306-1.879,12.785,12.785,0,0,1,1.306-1.127c.594-.376,1.187-.376,1.306.25a7.3,7.3,0,0,1-.237,2.254c-.119.376-.238.751-.475,1.628a6.4,6.4,0,0,1-.712,1.753c-.119,0-.119.125-.238.125a3,3,0,0,0-1.187,4.008,2.7,2.7,0,0,0,3.8,1.252,3,3,0,0,0,1.188-4.008c0-.125-.119-.125-.119-.25a14.49,14.49,0,0,1,.712-3.507v-.125c.594-1.753,2.138-3.507,2.969-2.63a3.2,3.2,0,0,1,.95,2.5,3.273,3.273,0,0,0,.119,1A2.466,2.466,0,0,0,26.244,27.4a2.63,2.63,0,0,0,1.781-3.256,2.458,2.458,0,0,0-.594-1.127,38.353,38.353,0,0,1-2.85-3.507l-.119-.125a5.242,5.242,0,0,1-.356-5.26l2.256-4.008c1.188-2.254,3.206-3.507,4.512-2.755s2.256,1.378,2.256,1.378Z" transform="translate(457 3821.521)" fill="#5fcf80"/>
  </g>
</svg>
