<svg xmlns="http://www.w3.org/2000/svg" width="40" height="40" viewBox="0 0 40 40">
  <g id="Group_240269" data-name="Group 240269" transform="translate(-1096 -4205)">
    <path id="Vector" d="M34.142,5.858A20,20,0,1,1,20,0,20,20,0,0,1,34.142,5.858Zm-4.153,7.956a.226.226,0,0,0-.3-.19,7.732,7.732,0,0,1-1.379.466,4.271,4.271,0,0,0,1.134-1.808.224.224,0,0,0-.329-.263,7.974,7.974,0,0,1-2.105.868.566.566,0,0,1-.132.018.558.558,0,0,1-.371-.142,4.305,4.305,0,0,0-2.853-1.076,4.629,4.629,0,0,0-1.366.211,4.187,4.187,0,0,0-2.816,3.011,4.576,4.576,0,0,0-.1,1.579.163.163,0,0,1-.158.176h-.021a11.316,11.316,0,0,1-7.766-4.15.226.226,0,0,0-.371.029,4.321,4.321,0,0,0,.7,5.239,3.8,3.8,0,0,1-.984-.382.226.226,0,0,0-.334.2,4.321,4.321,0,0,0,2.518,3.976h-.092a3.969,3.969,0,0,1-.726-.068.226.226,0,0,0-.263.292,4.329,4.329,0,0,0,3.421,2.939,7.976,7.976,0,0,1-4.458,1.353h-.5a.329.329,0,0,0-.321.247.342.342,0,0,0,.163.379,11.842,11.842,0,0,0,5.947,1.6,12.342,12.342,0,0,0,3.879-.6,11.245,11.245,0,0,0,4.934-3.261,12.224,12.224,0,0,0,2.276-3.816,12,12,0,0,0,.774-4.174V16.4a.732.732,0,0,1,.263-.571,8.445,8.445,0,0,0,1.713-1.882.226.226,0,0,0,.029-.133Z" transform="translate(1096 4205)" fill="#fff"/>
  </g>
</svg>
