<svg xmlns="http://www.w3.org/2000/svg" width="20.806" height="16.792" viewBox="0 0 20.806 16.792">
  <path id="Vector" d="M6.543,16.788A12.146,12.146,0,0,1,0,14.887,8.606,8.606,0,0,0,6.318,13.13a4.293,4.293,0,0,1-2.469-.837,4.247,4.247,0,0,1-1.519-2.107,4.289,4.289,0,0,0,1.928-.073A4.275,4.275,0,0,1,1.8,8.642,4.224,4.224,0,0,1,.832,5.956V5.9a4.253,4.253,0,0,0,1.937.531A4.226,4.226,0,0,1,1.448.774,12.105,12.105,0,0,0,5.373,3.918,12.185,12.185,0,0,0,10.246,5.2,4.234,4.234,0,0,1,12.392.5a4.294,4.294,0,0,1,5.129.834A8.588,8.588,0,0,0,20.231.307a4.259,4.259,0,0,1-1.877,2.345,8.554,8.554,0,0,0,2.452-.667,8.653,8.653,0,0,1-2.13,2.195c.012.182.012.365.012.548A12.02,12.02,0,0,1,6.543,16.792" fill="#1da1f2"/>
</svg>
