<svg xmlns="http://www.w3.org/2000/svg" width="43.795" height="48" viewBox="0 0 43.795 48">
  <path id="Vector_10" d="M22.265-47.914A25.231,25.231,0,0,0,1.428-31.643,25.822,25.822,0,0,0,3.744-9.77C10.89,1.483,27.961,3.377,38.117-5.981A19.662,19.662,0,0,0,43.1-14.465c1.435-5.327.6-11.091-2.145-14.928a16.65,16.65,0,0,0-15.25-6.719c-5.958.68-10.11,4.485-11.144,10.2-1.019,5.586,1.219,10.168,5.665,11.673a5.573,5.573,0,0,0,2.624.291,4.718,4.718,0,0,0,2.593-.583,5.8,5.8,0,0,0,3.087-4.7,5.749,5.749,0,0,0-.386-3.351,5.012,5.012,0,0,0-6.251-2.85,3.194,3.194,0,0,1-1.05.275c-.123-.13.833-1.344,1.543-1.943a9.548,9.548,0,0,1,5.541-2.04c4.8.016,7.9,3.837,7.64,9.391A11.576,11.576,0,0,1,29.057-9.4,13.46,13.46,0,0,1,24.581-8.07,15.093,15.093,0,0,1,14.255-10.9C8.482-15.226,6.4-24.373,9.624-31.125a16.888,16.888,0,0,1,3.056-4.452,18.358,18.358,0,0,1,12.085-6.2c4.723-.486,10.727,1.166,16.561,4.533a15.843,15.843,0,0,0,1.991,1.052,22.764,22.764,0,0,0-2.578-3.821,22.054,22.054,0,0,0-9.755-6.913,22.7,22.7,0,0,0-8.721-.988Z" transform="translate(0 48)" fill="#004392"/>
</svg>
