<svg xmlns="http://www.w3.org/2000/svg" width="186.13" height="48" viewBox="0 0 186.13 48">
  <g id="Group_240284" data-name="Group 240284" transform="translate(-140.099 -16)">
    <path id="Vector_11" d="M15-25.684v6.076l-.958-.482c-2.7-1.368-4.731-1.785-6.89-1.434a6.406,6.406,0,0,0-3.635,1.763,12.282,12.282,0,0,0-3.4,6.514A26.61,26.61,0,0,0,.123-8.266,10.546,10.546,0,0,0,2.431-2.584,8.2,8.2,0,0,0,9.84-.164,9.746,9.746,0,0,0,14.19-2.485l.981-.788.289.252C16.833-1.839,19.049,0,19.106,0s2.043-1.336,2.285-1.544c.058-.044-.173-.372-.519-.723a6.779,6.779,0,0,1-1.558-2.606c-.2-.613-.208-1.566-.242-13.772l-.046-13.1H15Zm-2.562,6.569a14.911,14.911,0,0,1,1.7.723l.866.449V-4.883l-.612.558A11.607,11.607,0,0,1,9.078-2.113,2.808,2.808,0,0,1,6.654-3.1,8.827,8.827,0,0,1,4.369-7.937a21.616,21.616,0,0,1,.046-5.474,9.311,9.311,0,0,1,2.135-4.445,5.044,5.044,0,0,1,2.2-1.39,6.271,6.271,0,0,1,3.681.131Z" transform="translate(236.3 55.962)" fill="#004392"/>
    <path id="Vector_12" d="M0-15.6V0H4.039V-15.853l.877-.679a9.3,9.3,0,0,1,2.966-1.533,6.246,6.246,0,0,1,1.627-.088c1.8.088,2.585.569,3.208,1.949l.265.6.035,7.795L13.052,0h4.039l-.035-8.189c-.046-8.112-.046-8.189-.3-8.988a4.567,4.567,0,0,0-1.4-2.31C12.775-21.94,8.586-21.48,4.651-18.316l-.727.591V-31.2H0Z" transform="translate(262.723 55.414)" fill="#004392"/>
    <path id="Vector_13" d="M9.867-21.2a11.38,11.38,0,0,0-5.412,3.613,4.144,4.144,0,0,1-.612.679c-.035-.033-.519-1.653-.946-3.219l-.138-.46H0V0H4.039V-15.108l.692-.526a20.16,20.16,0,0,1,3.462-1.938,13.543,13.543,0,0,1,3.07-.821c.265,0,.392-.055.392-.164,0-.175-.323-2.255-.415-2.66-.069-.307-.323-.307-1.373.022Z" transform="translate(211.599 55.414)" fill="#004392"/>
    <path id="Vector_14" d="M8.757-21.494A10.14,10.14,0,0,0,3.045-18.45,10.187,10.187,0,0,0,.021-11.192C-.256-5.619,2.2-1.787,6.911-.43A14.649,14.649,0,0,0,17.124-1.7l.808-.405.035-.81c.035-.734.012-.8-.173-.723a15.223,15.223,0,0,1-7.651,1A7.728,7.728,0,0,1,4.891-6.2a11.785,11.785,0,0,1-1.1-4.806v-.788H19.166l-.069-.854a13.738,13.738,0,0,0-.669-3.47,8.029,8.029,0,0,0-5.17-5.222,13.385,13.385,0,0,0-4.5-.153Zm1.1,2.091a9.14,9.14,0,0,1,3.081,1.368,7.369,7.369,0,0,1,2.227,4.292l.081.635H3.933l.15-.635A9,9,0,0,1,7.534-19.03c.889-.6,1.05-.624,2.32-.372Z" transform="translate(284.547 55.932)" fill="#004392"/>
    <path id="Vector_15" d="M8.677-21.466a10.8,10.8,0,0,0-6.716,4.215A11.147,11.147,0,0,0,.253-13.365a16.878,16.878,0,0,0,.115,6.4A9.143,9.143,0,0,0,7.454-.271a15.187,15.187,0,0,0,5.712,0,20.6,20.6,0,0,0,4.062-1.467l.669-.35V-3.654l-1.085.361a13.774,13.774,0,0,1-4.858.755,6.6,6.6,0,0,1-2.747-.307,7.133,7.133,0,0,1-4.755-4.3,14.237,14.237,0,0,1-.692-3.624L3.68-11.777H19.087L19.017-12.9a9.422,9.422,0,0,0-3.012-6.831,6.976,6.976,0,0,0-2.654-1.533,5.958,5.958,0,0,0-2.377-.317,10.686,10.686,0,0,0-2.3.12Zm1.085,2.08a6.315,6.315,0,0,1,5.124,4.543c.115.449.242,1.029.277,1.281l.058.471H9.577c-3.1,0-5.643-.033-5.643-.066s.1-.46.242-.942a8.637,8.637,0,0,1,3.635-5.124c.635-.372.75-.383,1.95-.164Z" transform="translate(307.142 55.915)" fill="#004392"/>
    <path id="Vector_16" d="M4.316-11.406C6.693-6.052,8.805-1.3,9-.83c.369.843.369.854.762.821l.392-.033L14.518-10.5c2.4-5.748,4.374-10.5,4.374-10.543A2.343,2.343,0,0,0,18-21.095l-.889.033L14-13.158C12.279-8.8,10.848-5.286,10.8-5.33s-5.735-13.663-6.509-15.6c-.069-.164-.289-.186-2.193-.186H0Z" transform="translate(189.015 55.949)" fill="#004392"/>
    <path id="Vector_17" d="M0-10.291V0H3.924V-20.582H0Z" transform="translate(227.409 55.414)" fill="#004392"/>
    <path id="Vector_10" d="M22.265-47.914A25.231,25.231,0,0,0,1.428-31.643,25.822,25.822,0,0,0,3.744-9.77C10.89,1.483,27.961,3.377,38.117-5.981A19.662,19.662,0,0,0,43.1-14.465c1.435-5.327.6-11.091-2.145-14.928a16.65,16.65,0,0,0-15.25-6.719c-5.958.68-10.11,4.485-11.144,10.2-1.019,5.586,1.219,10.168,5.665,11.673a5.573,5.573,0,0,0,2.624.291,4.718,4.718,0,0,0,2.593-.583,5.8,5.8,0,0,0,3.087-4.7,5.749,5.749,0,0,0-.386-3.351,5.012,5.012,0,0,0-6.251-2.85,3.194,3.194,0,0,1-1.05.275c-.123-.13.833-1.344,1.543-1.943a9.548,9.548,0,0,1,5.541-2.04c4.8.016,7.9,3.837,7.64,9.391A11.576,11.576,0,0,1,29.057-9.4,13.46,13.46,0,0,1,24.581-8.07,15.093,15.093,0,0,1,14.255-10.9C8.482-15.226,6.4-24.373,9.624-31.125a16.888,16.888,0,0,1,3.056-4.452,18.358,18.358,0,0,1,12.085-6.2c4.723-.486,10.727,1.166,16.561,4.533a15.843,15.843,0,0,0,1.991,1.052,22.764,22.764,0,0,0-2.578-3.821,22.054,22.054,0,0,0-9.755-6.913,22.7,22.7,0,0,0-8.721-.988Z" transform="translate(140.099 64)" fill="#004392"/>
  </g>
</svg>
