<svg xmlns="http://www.w3.org/2000/svg" width="174.268" height="77.874" viewBox="0 0 174.268 77.874">
  <g id="Group_240260" data-name="Group 240260" transform="translate(-156 -4085.588)">
    <path id="Vector_28" d="M21.143-44.19A23.851,23.851,0,0,0,1.356-29.183,23.217,23.217,0,0,0,3.555-9.01c6.786,10.378,23,12.125,32.641,3.494A18.031,18.031,0,0,0,40.93-13.34c1.363-4.913.572-10.228-2.037-13.767a16.012,16.012,0,0,0-14.481-6.2c-5.657.627-9.6,4.136-10.582,9.407-.967,5.152,1.158,9.377,5.379,10.766a5.438,5.438,0,0,0,2.492.269,4.587,4.587,0,0,0,2.462-.538,5.343,5.343,0,0,0,2.931-4.33,5.163,5.163,0,0,0-.366-3.091,4.8,4.8,0,0,0-5.936-2.628,3.107,3.107,0,0,1-1,.254c-.117-.119.791-1.239,1.466-1.792a9.231,9.231,0,0,1,5.262-1.881c4.558.015,7.5,3.539,7.255,8.66a10.657,10.657,0,0,1-6.185,9.541,13.063,13.063,0,0,1-4.25,1.224,14.648,14.648,0,0,1-9.805-2.613c-5.482-3.987-7.46-12.423-4.4-18.65a15.567,15.567,0,0,1,2.9-4.106A17.613,17.613,0,0,1,23.517-38.53C28-38.978,33.7-37.455,39.244-34.349a15.211,15.211,0,0,0,1.891.971A20.952,20.952,0,0,0,38.687-36.9a20.945,20.945,0,0,0-9.263-6.376,22.16,22.16,0,0,0-8.281-.911Z" transform="translate(185.159 4129.856)" fill="#fff"/>
    <path id="Vector_29" d="M19.048-35.03v8.287L17.832-27.4c-3.43-1.866-6.009-2.434-8.75-1.956a7.93,7.93,0,0,0-4.617,2.4A17.187,17.187,0,0,0,.141-18.068a38.962,38.962,0,0,0,.015,6.794c.381,3.2,1.51,6.167,2.931,7.75a9.984,9.984,0,0,0,9.41,3.3c1.8-.388,3.283-1.239,5.526-3.166l1.246-1.075.366.343C21.379-2.509,24.193,0,24.266,0s2.594-1.822,2.9-2.105c.073-.06-.22-.508-.66-.985A9.4,9.4,0,0,1,24.53-6.645c-.249-.836-.264-2.135-.308-18.784L24.164-43.3H19.048Zm-3.254,8.959a18.261,18.261,0,0,1,2.155.986l1.1.612V-6.66l-.777.762a14.221,14.221,0,0,1-6.742,3.016A3.445,3.445,0,0,1,8.452-4.226a12.421,12.421,0,0,1-2.9-6.6,31.643,31.643,0,0,1,.059-7.466A13.1,13.1,0,0,1,8.32-24.354a6.368,6.368,0,0,1,2.8-1.9,7.444,7.444,0,0,1,4.675.179Z" transform="translate(216.054 4163.462)" fill="#fff"/>
    <path id="Vector_30" d="M0-21.278V0H5.13V-21.621l1.114-.926a11.53,11.53,0,0,1,3.767-2.09,7.4,7.4,0,0,1,2.067-.119c2.286.119,3.283.776,4.075,2.658l.337.821.044,10.631L16.577,0h5.13l-.044-11.169c-.059-11.065-.059-11.169-.381-12.259a6.319,6.319,0,0,0-1.773-3.151c-3.283-3.345-8.6-2.718-13.6,1.6l-.923.806V-42.556H0Z" transform="translate(249.612 4162.716)" fill="#fff"/>
    <path id="Vector_31" d="M12.532-28.908a14.443,14.443,0,0,0-6.874,4.928,5.517,5.517,0,0,1-.777.926c-.044-.045-.66-2.255-1.2-4.39L3.5-28.072H0V0H5.13V-20.606l.879-.717a25.165,25.165,0,0,1,4.4-2.643,16.261,16.261,0,0,1,3.9-1.12c.337,0,.5-.075.5-.224,0-.239-.41-3.076-.528-3.628-.088-.418-.41-.418-1.744.03Z" transform="translate(184.684 4162.716)" fill="#fff"/>
    <path id="Vector_32" d="M11.122-29.315a12.638,12.638,0,0,0-7.255,4.151C1.39-22.521.232-19.5.027-15.264-.325-7.664,2.8-2.438,8.777-.586c3.855,1.195,8.75.538,12.971-1.732l1.026-.552.044-1.1c.044-1,.015-1.09-.22-.986A18.112,18.112,0,0,1,12.881-3.6,9.838,9.838,0,0,1,6.212-8.455,17.063,17.063,0,0,1,4.82-15.01v-1.075H24.342l-.088-1.165a19.962,19.962,0,0,0-.85-4.733,10.61,10.61,0,0,0-6.566-7.122,15.852,15.852,0,0,0-5.716-.209Zm1.392,2.852A11.233,11.233,0,0,1,16.428-24.6a10.308,10.308,0,0,1,2.829,5.853l.1.866H5l.191-.866a12.361,12.361,0,0,1,4.382-7.212c1.129-.821,1.334-.851,2.946-.508Z" transform="translate(277.331 4163.421)" fill="#fff"/>
    <path id="Vector_33" d="M11.021-29.278a13.636,13.636,0,0,0-8.53,5.749,15.779,15.779,0,0,0-2.169,5.3A24.69,24.69,0,0,0,.468-9.493a12.014,12.014,0,0,0,9,9.123,17.986,17.986,0,0,0,7.255,0,25.02,25.02,0,0,0,5.159-2l.85-.478V-4.984l-1.378.493a16.4,16.4,0,0,1-6.17,1.03,7.843,7.843,0,0,1-3.488-.418A9.334,9.334,0,0,1,5.656-9.747a20.691,20.691,0,0,1-.879-4.942l-.1-1.374H24.241L24.153-17.6q-.33-6-3.825-9.317a8.74,8.74,0,0,0-3.371-2.09,7.091,7.091,0,0,0-3.019-.433,12.654,12.654,0,0,0-2.917.164ZM12.4-26.441a8.246,8.246,0,0,1,6.508,6.2c.147.612.308,1.4.352,1.747l.073.642H12.164C8.221-17.855,5-17.9,5-17.944s.132-.627.308-1.284a11.784,11.784,0,0,1,4.617-6.988c.806-.508.953-.523,2.477-.224Z" transform="translate(306.027 4163.399)" fill="#fff"/>
    <path id="Vector_34" d="M5.482-15.557c3.019,7.3,5.7,13.782,5.951,14.424C11.9.017,11.9.032,12.4-.013l.5-.045,5.54-14.26c3.049-7.839,5.555-14.32,5.555-14.379a2.779,2.779,0,0,0-1.129-.075l-1.129.045L17.779-17.946c-2.184,5.943-4,10.736-4.06,10.676S6.434-25.9,5.452-28.547c-.088-.224-.366-.254-2.785-.254H0Z" transform="translate(156 4163.445)" fill="#fff"/>
    <path id="Vector_35" d="M0-14.036V0H4.983V-28.072H0Z" transform="translate(204.763 4162.716)" fill="#fff"/>
  </g>
</svg>
