<svg xmlns="http://www.w3.org/2000/svg" width="20.806" height="20.665" viewBox="0 0 20.806 20.665">
  <g id="Group_240287" data-name="Group 240287" transform="translate(-547.211 -1359.828)">
    <g id="Ellipse_138" data-name="Ellipse 138" transform="translate(547.211 1359.828)" fill="none" stroke="#004392" stroke-width="1">
      <ellipse cx="10.403" cy="10.333" rx="10.403" ry="10.333" stroke="none"/>
      <ellipse cx="10.403" cy="10.333" rx="9.903" ry="9.833" fill="none"/>
    </g>
    <g id="Group_240253" data-name="Group 240253">
      <path id="Vector" d="M7.172,1.154V5.045A1.162,1.162,0,0,1,6.009,6.2H1.162A1.162,1.162,0,0,1,0,5.045V1.154A1.162,1.162,0,0,1,1.162,0H6.009A1.154,1.154,0,0,1,7.172,1.154Z" transform="translate(552.758 1367.404)" fill="#004392"/>
      <path id="Vector-2" data-name="Vector" d="M2.871.688V4.256a.7.7,0,0,1-.093.346.694.694,0,0,1-.953.254L0,3.817V1.138L1.813.1a.594.594,0,0,1,.2-.081.7.7,0,0,1,.86.67Z" transform="translate(560.512 1368.021)" fill="#004392"/>
    </g>
  </g>
</svg>
