<svg xmlns="http://www.w3.org/2000/svg" width="10.625" height="6.2" viewBox="0 0 10.625 6.2">
  <g id="Group_240288" data-name="Group 240288" transform="translate(-552.758 -1367.404)">
    <path id="Vector" d="M7.172,1.154V5.045A1.162,1.162,0,0,1,6.009,6.2H1.162A1.162,1.162,0,0,1,0,5.045V1.154A1.162,1.162,0,0,1,1.162,0H6.009A1.154,1.154,0,0,1,7.172,1.154Z" transform="translate(552.758 1367.404)" fill="#004392"/>
    <path id="Vector-2" data-name="Vector" d="M2.871.688V4.256a.7.7,0,0,1-.093.346.694.694,0,0,1-.953.254L0,3.817V1.138L1.813.1a.594.594,0,0,1,.2-.081.7.7,0,0,1,.86.67Z" transform="translate(560.512 1368.021)" fill="#004392"/>
  </g>
</svg>
