<svg xmlns="http://www.w3.org/2000/svg" width="20.806" height="14.56" viewBox="0 0 20.806 14.56">
  <g id="Group_240252" data-name="Group 240252" transform="translate(-651.263 -1486.873)">
    <path id="Vector" d="M20.806,7.28a27.049,27.049,0,0,1-.435,5.007,2.606,2.606,0,0,1-1.839,1.839c-1.627.434-8.129.434-8.129.434s-6.5,0-8.129-.434A2.606,2.606,0,0,1,.435,12.286,27.049,27.049,0,0,1,0,7.28,27.049,27.049,0,0,1,.435,2.273,2.606,2.606,0,0,1,2.275.434C3.9,0,10.4,0,10.4,0s6.5,0,8.129.434a2.606,2.606,0,0,1,1.839,1.839,27.049,27.049,0,0,1,.435,5.007Z" transform="translate(651.263 1486.873)" fill="#ff0302"/>
    <path id="Vector-2" data-name="Vector" d="M0,6.146V0L5.438,3.073Z" transform="translate(659.538 1491.08)" fill="#fefefe"/>
  </g>
</svg>
