<svg xmlns="http://www.w3.org/2000/svg" width="40" height="40" viewBox="0 0 40 40">
  <g id="Group_240271" data-name="Group 240271" transform="translate(-1206 -4205)">
    <path id="Vector" d="M0,0,6.239,3.832,0,7.666Z" transform="translate(1223.607 4221.168)" fill="#fff"/>
    <path id="Vector-2" data-name="Vector" d="M34.142,5.858A20,20,0,1,1,20,0,20,20,0,0,1,34.142,5.858Zm-4.6,9.332A3.553,3.553,0,0,0,26.6,13.042a62.322,62.322,0,0,0-13.179,0,3.536,3.536,0,0,0-2.953,2.147,24.984,24.984,0,0,0,0,9.624,3.558,3.558,0,0,0,2.942,2.147,62.322,62.322,0,0,0,13.179,0,3.558,3.558,0,0,0,2.942-2.147A24.984,24.984,0,0,0,29.542,15.189Z" transform="translate(1206 4205)" fill="#fff"/>
  </g>
</svg>
